<svg xmlns="http://www.w3.org/2000/svg" xmlns:xlink="http://www.w3.org/1999/xlink" width="500" zoomAndPan="magnify" viewBox="0 0 375 374.999991" height="500" preserveAspectRatio="xMidYMid meet" version="1.0"><defs><g/><clipPath id="6b85b5bec4"><path d="M 226 131 L 266.808594 131 L 266.808594 149 L 226 149 Z M 226 131 " clip-rule="nonzero"/></clipPath><clipPath id="f6ed5ee283"><path d="M 108.558594 74.210938 L 241 74.210938 L 241 168 L 108.558594 168 Z M 108.558594 74.210938 " clip-rule="nonzero"/></clipPath><clipPath id="d6e3d4096f"><path d="M 198 140 L 253 140 L 253 215.210938 L 198 215.210938 Z M 198 140 " clip-rule="nonzero"/></clipPath></defs><path fill="#5271ff" d="M 189.328125 167.019531 C 187.4375 157.980469 185.050781 149.753906 182.164062 142.339844 C 179.113281 134.515625 175.503906 127.574219 171.332031 121.519531 C 167.871094 116.496094 164.015625 112.074219 159.765625 108.253906 C 157.875 106.550781 155.90625 104.972656 153.859375 103.515625 C 154.246094 104.195312 154.625 104.890625 155 105.605469 C 157 109.433594 158.804688 113.753906 160.414062 118.566406 C 162.492188 124.792969 164.292969 132.671875 165.777344 141.414062 C 167.308594 150.40625 168.511719 160.320312 169.347656 170.289062 C 172.492188 171.164062 175.507812 171.183594 178.652344 170.59375 C 181.9375 169.980469 185.414062 168.699219 189.328125 167.019531 Z M 185.921875 140.886719 C 189.078125 148.988281 191.644531 157.96875 193.617188 167.824219 C 193.796875 168.734375 193.332031 169.675781 192.449219 170.066406 C 187.675781 172.167969 183.488281 173.792969 179.394531 174.558594 C 175.226562 175.339844 171.222656 175.210938 166.957031 173.765625 C 166.136719 173.558594 165.5 172.851562 165.429688 171.960938 C 164.597656 161.617188 163.371094 151.332031 161.796875 142.078125 C 160.339844 133.519531 158.59375 125.847656 156.589844 119.847656 C 155.042969 115.21875 153.320312 111.089844 151.429688 107.46875 C 149.554688 103.882812 147.507812 100.78125 145.277344 98.152344 C 144.769531 97.550781 144.640625 96.675781 145.027344 95.925781 C 145.535156 94.9375 146.753906 94.546875 147.742188 95.058594 C 153.074219 97.820312 157.980469 101.21875 162.46875 105.253906 C 166.941406 109.273438 171.003906 113.929688 174.652344 119.230469 C 179 125.542969 182.757812 132.761719 185.921875 140.886719 Z M 185.921875 140.886719 " fill-opacity="1" fill-rule="nonzero"/><path fill="#5271ff" d="M 153.363281 139.636719 C 152.199219 134.742188 150.84375 129.910156 149.292969 125.148438 C 148.105469 121.5 146.800781 117.871094 145.375 114.269531 C 145.410156 119.777344 145.339844 125.042969 145.160156 130.0625 C 144.945312 136.195312 144.574219 141.980469 144.042969 147.425781 C 143.511719 152.910156 142.832031 157.996094 142 162.683594 C 141.179688 167.320312 140.207031 171.625 139.089844 175.59375 C 140.101562 176.109375 142.148438 176.261719 144.574219 176.136719 C 147.285156 175.996094 150.339844 175.484375 152.960938 174.710938 C 155.976562 173.820312 158.328125 172.8125 158.210938 172.085938 C 158.207031 172.039062 158.199219 171.992188 158.195312 171.941406 L 158.1875 171.945312 C 157.734375 166.46875 157.160156 161.035156 156.382812 155.664062 C 155.605469 150.304688 154.625 144.957031 153.363281 139.636719 Z M 153.132812 123.902344 C 154.730469 128.8125 156.121094 133.746094 157.296875 138.703125 C 158.578125 144.109375 159.582031 149.578125 160.378906 155.097656 C 161.175781 160.605469 161.761719 166.109375 162.21875 171.613281 L 162.214844 171.613281 C 162.585938 174.738281 158.929688 177.152344 154.097656 178.578125 C 151.1875 179.4375 147.792969 180.007812 144.777344 180.164062 C 141.558594 180.328125 138.65625 180.003906 136.984375 179.046875 C 135.320312 178.097656 134.570312 176.699219 135.117188 174.78125 C 136.234375 170.867188 137.203125 166.601562 138.019531 161.988281 C 138.847656 157.308594 139.519531 152.328125 140.03125 147.046875 C 140.550781 141.683594 140.917969 135.976562 141.132812 129.921875 C 141.34375 123.886719 141.40625 117.523438 141.3125 110.832031 L 141.3125 110.8125 C 141.304688 110.695312 141.304688 110.582031 141.316406 110.46875 C 141.351562 109.882812 141.542969 109.3125 141.863281 108.820312 C 142.1875 108.332031 142.636719 107.921875 143.1875 107.652344 C 143.304688 107.589844 143.429688 107.535156 143.558594 107.496094 C 144.355469 107.222656 145.195312 107.265625 145.929688 107.566406 C 146.664062 107.871094 147.292969 108.433594 147.664062 109.191406 C 147.714844 109.285156 147.761719 109.386719 147.796875 109.492188 C 149.777344 114.25 151.554688 119.050781 153.132812 123.902344 Z M 153.132812 123.902344 " fill-opacity="1" fill-rule="nonzero"/><path fill="#5271ff" d="M 123.515625 200.136719 C 127.492188 198.574219 130.03125 197.175781 131.144531 195.199219 C 132.257812 193.222656 132.140625 190.339844 130.847656 185.71875 C 130.550781 184.644531 131.179688 183.535156 132.253906 183.238281 C 132.511719 183.167969 132.777344 183.148438 133.027344 183.179688 L 133.027344 183.175781 C 149.085938 185.117188 164.230469 183.785156 178.394531 179.992188 C 194.121094 175.777344 208.648438 168.523438 221.875 159.34375 C 222.789062 158.707031 224.050781 158.933594 224.6875 159.851562 C 225.003906 160.304688 225.105469 160.84375 225.019531 161.347656 C 224.140625 170.839844 221.535156 179.066406 217.207031 186.035156 C 212.839844 193.0625 206.726562 198.789062 198.871094 203.21875 C 198.617188 203.359375 198.34375 203.441406 198.070312 203.46875 C 186.480469 204.566406 174.511719 205.164062 162.160156 205.257812 C 149.796875 205.355469 137.101562 204.949219 124.074219 204.042969 C 122.960938 203.972656 122.117188 203.007812 122.191406 201.898438 C 122.246094 201.074219 122.789062 200.402344 123.515625 200.136719 Z M 134.667969 197.171875 C 133.949219 198.449219 132.953125 199.519531 131.664062 200.476562 C 142.09375 201.058594 152.253906 201.308594 162.144531 201.234375 C 174.203125 201.140625 185.910156 200.5625 197.269531 199.5 C 204.328125 195.449219 209.832031 190.25 213.777344 183.902344 C 217.136719 178.496094 219.375 172.246094 220.488281 165.152344 C 207.902344 173.402344 194.191406 179.9375 179.4375 183.890625 C 165.644531 187.585938 150.957031 189.023438 135.433594 187.5 C 136.292969 191.6875 136.058594 194.707031 134.667969 197.171875 Z M 134.667969 197.171875 " fill-opacity="1" fill-rule="nonzero"/><path fill="#5271ff" d="M 234.164062 129.085938 C 234.464844 130.15625 233.839844 131.269531 232.765625 131.570312 C 231.691406 131.871094 230.578125 131.246094 230.277344 130.175781 C 229.519531 127.5 228.652344 125.667969 227.675781 124.675781 C 227.351562 124.347656 227.027344 124.140625 226.707031 124.046875 C 226.410156 123.964844 226.074219 123.976562 225.699219 124.082031 C 224.808594 124.332031 223.757812 125.054688 222.554688 126.242188 C 221.742188 127.015625 220.535156 127.015625 219.722656 126.242188 C 218.519531 125.054688 217.46875 124.332031 216.578125 124.082031 C 216.203125 123.976562 215.867188 123.964844 215.574219 124.046875 C 215.25 124.140625 214.925781 124.347656 214.601562 124.675781 C 213.625 125.667969 212.757812 127.5 212 130.175781 C 211.699219 131.246094 210.585938 131.871094 209.511719 131.570312 C 208.4375 131.269531 207.8125 130.15625 208.113281 129.085938 C 209.058594 125.742188 210.261719 123.332031 211.726562 121.851562 C 212.558594 121.007812 213.46875 120.445312 214.464844 120.164062 C 215.492188 119.871094 216.558594 119.882812 217.667969 120.195312 C 218.789062 120.511719 219.945312 121.148438 221.140625 122.101562 C 222.332031 121.148438 223.488281 120.511719 224.609375 120.195312 C 225.71875 119.882812 226.785156 119.871094 227.8125 120.164062 C 228.808594 120.445312 229.722656 121.007812 230.550781 121.851562 C 232.015625 123.332031 233.21875 125.742188 234.164062 129.085938 Z M 234.164062 129.085938 " fill-opacity="1" fill-rule="nonzero"/><path fill="#5271ff" d="M 252.914062 116.554688 C 253.214844 117.625 252.585938 118.738281 251.515625 119.039062 C 250.441406 119.339844 249.328125 118.714844 249.023438 117.644531 C 248.253906 114.917969 247.410156 113.355469 246.492188 112.957031 C 245.824219 112.664062 244.78125 113.21875 243.367188 114.609375 C 242.558594 115.382812 241.351562 115.382812 240.539062 114.609375 C 239.605469 113.691406 238.808594 113.136719 238.144531 112.949219 C 237.90625 112.878906 237.703125 112.871094 237.53125 112.921875 C 237.328125 112.976562 237.121094 113.113281 236.90625 113.332031 C 236.15625 114.09375 235.484375 115.527344 234.882812 117.644531 C 234.582031 118.714844 233.46875 119.339844 232.394531 119.039062 C 231.320312 118.738281 230.695312 117.625 230.996094 116.554688 C 231.785156 113.773438 232.792969 111.757812 234.03125 110.507812 C 234.753906 109.773438 235.550781 109.285156 236.425781 109.035156 C 237.324219 108.78125 238.261719 108.789062 239.234375 109.0625 C 240.117188 109.3125 241.027344 109.792969 241.953125 110.5 C 244.128906 108.835938 246.179688 108.421875 248.105469 109.261719 C 250.191406 110.171875 251.792969 112.601562 252.914062 116.554688 Z M 252.914062 116.554688 " fill-opacity="1" fill-rule="nonzero"/><g clip-path="url(#6b85b5bec4)"><path fill="#5271ff" d="M 266.734375 145.949219 C 267.035156 147.019531 266.410156 148.132812 265.335938 148.433594 C 264.261719 148.734375 263.148438 148.109375 262.847656 147.039062 C 261.109375 140.898438 259.015625 137.296875 256.5625 136.230469 C 254.355469 135.269531 251.496094 136.523438 247.976562 139.992188 C 247.164062 140.765625 245.957031 140.765625 245.148438 139.992188 C 241.628906 136.523438 238.765625 135.269531 236.5625 136.230469 C 234.109375 137.296875 232.011719 140.898438 230.277344 147.039062 C 229.976562 148.109375 228.859375 148.734375 227.789062 148.433594 C 226.714844 148.132812 226.085938 147.019531 226.390625 145.949219 C 228.472656 138.582031 231.328125 134.113281 234.949219 132.535156 C 238.441406 131.015625 242.308594 132.105469 246.5625 135.808594 C 250.8125 132.105469 254.683594 131.015625 258.171875 132.535156 C 261.796875 134.113281 264.648438 138.582031 266.734375 145.949219 Z M 266.734375 145.949219 " fill-opacity="1" fill-rule="nonzero"/></g><g clip-path="url(#f6ed5ee283)"><path fill="#5271ff" d="M 235.554688 105.984375 C 237.058594 105.554688 238.597656 105.585938 240.097656 106.007812 C 240.160156 106.027344 240.21875 106.042969 240.28125 106.0625 C 233.769531 96.359375 225.054688 88.527344 215.046875 83.054688 C 198.894531 74.226562 179.375 71.554688 160.3125 77.128906 C 141.242188 82.710938 126.242188 95.484375 117.40625 111.628906 C 108.570312 127.769531 105.894531 147.273438 111.476562 166.324219 C 111.785156 167.390625 112.902344 168.007812 113.972656 167.699219 C 115.042969 167.386719 115.65625 166.269531 115.347656 165.203125 C 110.078125 147.214844 112.601562 128.792969 120.945312 113.554688 C 129.285156 98.320312 143.441406 86.265625 161.433594 81 C 179.4375 75.730469 197.871094 78.253906 213.121094 86.589844 C 221.773438 91.324219 229.40625 97.929688 235.347656 106.042969 C 235.417969 106.023438 235.484375 106.003906 235.554688 105.984375 Z M 235.554688 105.984375 " fill-opacity="1" fill-rule="evenodd"/></g><g clip-path="url(#d6e3d4096f)"><path fill="#5271ff" d="M 248.398438 143.417969 C 248.90625 155.910156 245.917969 168.078125 240.101562 178.703125 C 231.761719 193.9375 217.605469 205.992188 199.609375 211.257812 C 198.542969 211.566406 197.925781 212.683594 198.234375 213.753906 C 198.546875 214.820312 199.664062 215.433594 200.734375 215.125 C 219.800781 209.546875 234.804688 196.773438 243.640625 180.628906 C 250.230469 168.589844 253.394531 154.679688 252.257812 140.484375 C 251.335938 141.1875 250.511719 141.957031 250.199219 142.261719 C 249.664062 142.785156 249.050781 143.167969 248.398438 143.417969 Z M 248.398438 143.417969 " fill-opacity="1" fill-rule="evenodd"/></g><g fill="#000000" fill-opacity="1"><g transform="translate(94.384363, 251.124212)"><g><path d="M 15.324219 -25.90625 C 13.007812 -26.816406 10.277344 -27.195312 7.925781 -26.320312 C 5.234375 -25.296875 4.285156 -23.023438 3.980469 -20.328125 C 3.1875 -13.539062 2.578125 -6.714844 1.894531 0.0742188 C 1.515625 3.71875 7.207031 3.71875 7.585938 0.0742188 C 7.890625 -2.804688 8.15625 -5.6875 8.457031 -8.535156 C 13.386719 -7.394531 19.039062 -9.214844 21.316406 -14.03125 C 23.820312 -19.265625 20.140625 -23.96875 15.324219 -25.90625 Z M 9.066406 -14.296875 C 9.179688 -15.359375 9.253906 -16.460938 9.367188 -17.523438 C 9.445312 -18.320312 9.332031 -19.644531 9.671875 -20.328125 C 10.011719 -21.050781 9.59375 -20.898438 10.429688 -21.125 C 12.363281 -21.695312 16.648438 -19.53125 16.460938 -17.332031 C 16.195312 -13.84375 11.566406 -13.539062 9.066406 -14.296875 Z M 9.066406 -14.296875 "/></g></g></g><g fill="#000000" fill-opacity="1"><g transform="translate(123.736642, 251.124212)"><g><path d="M 21.542969 -3.601562 C 19.457031 -6.449219 17.066406 -8.988281 14.335938 -11.1875 C 16.382812 -12.628906 18.089844 -14.640625 18.8125 -16.800781 C 20.253906 -21.125 16.382812 -25.375 11.984375 -25.183594 C 7.320312 -24.957031 4.246094 -20.632812 3.414062 -16.421875 C 2.3125 -10.960938 2.3125 -5.15625 1.894531 0.378906 C 1.59375 4.019531 7.28125 4.019531 7.585938 0.378906 C 7.8125 -2.617188 8.039062 -5.613281 8.304688 -8.609375 C 11.53125 -6.484375 14.335938 -3.867188 16.648438 -0.71875 C 18.773438 2.199219 23.742188 -0.644531 21.542969 -3.601562 Z M 13.425781 -18.773438 C 13.578125 -18.167969 11.871094 -16.648438 11.417969 -16.234375 C 10.621094 -15.511719 9.859375 -14.980469 8.875 -14.867188 C 8.988281 -15.511719 9.140625 -16.15625 9.40625 -16.765625 C 9.671875 -17.484375 12.894531 -21.351562 13.425781 -18.773438 Z M 13.425781 -18.773438 "/></g></g></g><g fill="#000000" fill-opacity="1"><g transform="translate(153.050996, 251.124212)"><g><path d="M 21.085938 -24.121094 C 17.976562 -29.242188 9.859375 -29.886719 5.804688 -25.753906 C 1.820312 -22.339844 1.25 -14.414062 2.390625 -9.976562 C 3.1875 -6.941406 5.195312 -3.753906 8.304688 -2.769531 C 11.53125 -1.707031 15.09375 -2.882812 17.636719 -4.96875 C 20.214844 -7.128906 21.808594 -10.277344 22.339844 -13.578125 C 22.832031 -16.839844 22.871094 -21.203125 21.085938 -24.121094 Z M 14.183594 -9.367188 C 14.070312 -9.292969 13.996094 -9.214844 13.882812 -9.101562 C 12.667969 -8.078125 10.734375 -7.660156 9.445312 -8.648438 C 8.609375 -9.253906 8.230469 -10.277344 7.964844 -11.265625 C 7.585938 -12.894531 7.507812 -14.601562 7.699219 -16.269531 C 7.890625 -17.789062 8.269531 -19.722656 9.140625 -20.972656 C 9.9375 -22.074219 11.265625 -22.757812 12.628906 -22.792969 C 14.980469 -22.832031 16.5 -21.238281 16.765625 -19.039062 C 17.21875 -15.703125 16.726562 -11.796875 14.183594 -9.367188 Z M 14.183594 -9.367188 "/></g></g></g><g fill="#000000" fill-opacity="1"><g transform="translate(182.934178, 251.124212)"><g><path d="M 28.292969 -13.539062 C 28.257812 -16.839844 27.839844 -20.859375 25.183594 -23.171875 C 22.261719 -25.753906 19.417969 -24.386719 17.21875 -21.769531 C 17.144531 -21.921875 17.03125 -22.074219 16.953125 -22.1875 C 14.90625 -25.335938 10.582031 -25.144531 8.078125 -22.679688 C 5.386719 -20.0625 4.019531 -15.703125 3.222656 -12.136719 C 2.390625 -8.230469 2.125 -4.210938 1.894531 -0.265625 C 1.667969 3.414062 7.359375 3.375 7.585938 -0.265625 C 7.851562 -5.042969 8.15625 -9.898438 9.785156 -14.414062 C 10.164062 -15.4375 10.582031 -16.421875 11.152344 -17.332031 C 11.339844 -17.636719 11.832031 -18.660156 12.289062 -18.773438 C 12.289062 -18.8125 12.328125 -18.8125 12.328125 -18.8125 C 12.328125 -18.773438 12.328125 -18.699219 12.402344 -18.621094 C 12.859375 -18.015625 12.707031 -16.234375 12.742188 -15.511719 C 12.78125 -14.148438 12.707031 -12.78125 12.554688 -11.378906 C 12.25 -8.230469 17.636719 -7.472656 18.167969 -10.65625 C 18.46875 -12.667969 19.117188 -14.5625 20.214844 -16.308594 C 20.59375 -16.878906 21.429688 -17.558594 21.921875 -18.167969 C 21.996094 -17.558594 22.300781 -16.953125 22.378906 -16.382812 C 23.289062 -11.339844 22.300781 -5.765625 21.808594 -0.757812 C 21.429688 2.882812 27.117188 2.882812 27.496094 -0.757812 C 27.914062 -4.96875 28.371094 -9.253906 28.292969 -13.539062 Z M 28.292969 -13.539062 "/></g></g></g><g fill="#000000" fill-opacity="1"><g transform="translate(218.467709, 251.124212)"><g><path d="M 15.324219 -25.90625 C 13.007812 -26.816406 10.277344 -27.195312 7.925781 -26.320312 C 5.234375 -25.296875 4.285156 -23.023438 3.980469 -20.328125 C 3.1875 -13.539062 2.578125 -6.714844 1.894531 0.0742188 C 1.515625 3.71875 7.207031 3.71875 7.585938 0.0742188 C 7.890625 -2.804688 8.15625 -5.6875 8.457031 -8.535156 C 13.386719 -7.394531 19.039062 -9.214844 21.316406 -14.03125 C 23.820312 -19.265625 20.140625 -23.96875 15.324219 -25.90625 Z M 9.066406 -14.296875 C 9.179688 -15.359375 9.253906 -16.460938 9.367188 -17.523438 C 9.445312 -18.320312 9.332031 -19.644531 9.671875 -20.328125 C 10.011719 -21.050781 9.59375 -20.898438 10.429688 -21.125 C 12.363281 -21.695312 16.648438 -19.53125 16.460938 -17.332031 C 16.195312 -13.84375 11.566406 -13.539062 9.066406 -14.296875 Z M 9.066406 -14.296875 "/></g></g></g><g fill="#000000" fill-opacity="1"><g transform="translate(247.819983, 251.124212)"><g><path d="M 17.257812 -26.09375 C 13.046875 -26.625 8.835938 -26.699219 4.589844 -26.285156 C 0.984375 -25.90625 0.949219 -20.214844 4.589844 -20.59375 C 5.726562 -20.707031 6.828125 -20.785156 7.925781 -20.820312 C 7.585938 -15.285156 7.28125 -9.710938 6.941406 -4.171875 C 6.714844 -0.53125 12.402344 -0.53125 12.628906 -4.171875 C 12.972656 -9.710938 13.273438 -15.207031 13.617188 -20.746094 C 14.828125 -20.671875 16.042969 -20.558594 17.257812 -20.40625 C 20.898438 -19.949219 20.859375 -25.640625 17.257812 -26.09375 Z M 17.257812 -26.09375 "/></g></g></g><g fill="#5271ff" fill-opacity="1"><g transform="translate(146.91942, 277.228425)"><g><path d="M 6.515625 0.171875 C 5.367188 0.171875 4.359375 -0.0703125 3.484375 -0.5625 C 2.617188 -1.050781 1.945312 -1.734375 1.46875 -2.609375 C 0.988281 -3.492188 0.75 -4.523438 0.75 -5.703125 C 0.75 -6.878906 0.984375 -7.90625 1.453125 -8.78125 C 1.929688 -9.664062 2.609375 -10.347656 3.484375 -10.828125 C 4.359375 -11.316406 5.367188 -11.5625 6.515625 -11.5625 C 7.671875 -11.5625 8.679688 -11.316406 9.546875 -10.828125 C 10.410156 -10.347656 11.082031 -9.664062 11.5625 -8.78125 C 12.050781 -7.90625 12.296875 -6.878906 12.296875 -5.703125 C 12.296875 -4.523438 12.050781 -3.492188 11.5625 -2.609375 C 11.082031 -1.734375 10.410156 -1.050781 9.546875 -0.5625 C 8.679688 -0.0703125 7.671875 0.171875 6.515625 0.171875 Z M 6.515625 -2.3125 C 7.359375 -2.3125 8.019531 -2.609375 8.5 -3.203125 C 8.976562 -3.796875 9.21875 -4.628906 9.21875 -5.703125 C 9.21875 -6.765625 8.976562 -7.59375 8.5 -8.1875 C 8.03125 -8.78125 7.367188 -9.078125 6.515625 -9.078125 C 5.671875 -9.078125 5.007812 -8.78125 4.53125 -8.1875 C 4.0625 -7.59375 3.828125 -6.765625 3.828125 -5.703125 C 3.828125 -4.628906 4.0625 -3.796875 4.53125 -3.203125 C 5.007812 -2.609375 5.671875 -2.3125 6.515625 -2.3125 Z M 6.515625 -2.3125 "/></g></g></g><g fill="#5271ff" fill-opacity="1"><g transform="translate(162.863442, 277.228425)"><g><path d="M 6.78125 0.171875 C 5.519531 0.171875 4.4375 -0.0664062 3.53125 -0.546875 C 2.625 -1.035156 1.929688 -1.71875 1.453125 -2.59375 C 0.984375 -3.476562 0.75 -4.515625 0.75 -5.703125 C 0.75 -6.878906 0.984375 -7.90625 1.453125 -8.78125 C 1.929688 -9.664062 2.625 -10.347656 3.53125 -10.828125 C 4.4375 -11.316406 5.519531 -11.5625 6.78125 -11.5625 C 7.269531 -11.5625 7.78125 -11.503906 8.3125 -11.390625 C 8.851562 -11.273438 9.328125 -11.101562 9.734375 -10.875 C 10.035156 -10.71875 10.242188 -10.515625 10.359375 -10.265625 C 10.484375 -10.015625 10.523438 -9.757812 10.484375 -9.5 C 10.453125 -9.25 10.359375 -9.019531 10.203125 -8.8125 C 10.046875 -8.601562 9.847656 -8.460938 9.609375 -8.390625 C 9.378906 -8.328125 9.125 -8.363281 8.84375 -8.5 C 8.207031 -8.8125 7.554688 -8.96875 6.890625 -8.96875 C 5.890625 -8.96875 5.132812 -8.6875 4.625 -8.125 C 4.125 -7.5625 3.875 -6.753906 3.875 -5.703125 C 3.875 -4.628906 4.125 -3.8125 4.625 -3.25 C 5.132812 -2.6875 5.890625 -2.40625 6.890625 -2.40625 C 7.171875 -2.40625 7.472656 -2.4375 7.796875 -2.5 C 8.117188 -2.570312 8.4375 -2.6875 8.75 -2.84375 C 9.070312 -2.976562 9.359375 -3.015625 9.609375 -2.953125 C 9.859375 -2.890625 10.0625 -2.757812 10.21875 -2.5625 C 10.382812 -2.375 10.488281 -2.148438 10.53125 -1.890625 C 10.570312 -1.640625 10.535156 -1.390625 10.421875 -1.140625 C 10.316406 -0.898438 10.117188 -0.703125 9.828125 -0.546875 C 9.453125 -0.316406 8.988281 -0.140625 8.4375 -0.015625 C 7.882812 0.109375 7.332031 0.171875 6.78125 0.171875 Z M 6.78125 0.171875 "/></g></g></g><g fill="#5271ff" fill-opacity="1"><g transform="translate(176.887168, 277.228425)"><g><path d="M 2.578125 0 C 1.546875 0 1.03125 -0.507812 1.03125 -1.53125 L 1.03125 -9.84375 C 1.03125 -10.863281 1.546875 -11.375 2.578125 -11.375 L 8.046875 -11.375 C 8.828125 -11.375 9.21875 -11 9.21875 -10.25 C 9.21875 -9.476562 8.828125 -9.09375 8.046875 -9.09375 L 3.875 -9.09375 L 3.875 -6.921875 L 7.703125 -6.921875 C 8.472656 -6.921875 8.859375 -6.539062 8.859375 -5.78125 C 8.859375 -5.007812 8.472656 -4.625 7.703125 -4.625 L 3.875 -4.625 L 3.875 -2.296875 L 8.046875 -2.296875 C 8.828125 -2.296875 9.21875 -1.910156 9.21875 -1.140625 C 9.21875 -0.378906 8.828125 0 8.046875 0 Z M 2.578125 0 "/></g></g></g><g fill="#5271ff" fill-opacity="1"><g transform="translate(189.716743, 277.228425)"><g><path d="M 1.5625 0.140625 C 1.0625 0.140625 0.691406 -0.03125 0.453125 -0.375 C 0.210938 -0.71875 0.210938 -1.144531 0.453125 -1.65625 L 4.46875 -10.3125 C 4.664062 -10.726562 4.898438 -11.035156 5.171875 -11.234375 C 5.453125 -11.429688 5.785156 -11.53125 6.171875 -11.53125 C 6.535156 -11.53125 6.851562 -11.429688 7.125 -11.234375 C 7.40625 -11.035156 7.644531 -10.726562 7.84375 -10.3125 L 11.859375 -1.65625 C 12.109375 -1.132812 12.117188 -0.703125 11.890625 -0.359375 C 11.671875 -0.0234375 11.316406 0.140625 10.828125 0.140625 C 10.398438 0.140625 10.066406 0.046875 9.828125 -0.140625 C 9.597656 -0.335938 9.394531 -0.648438 9.21875 -1.078125 L 8.703125 -2.3125 L 3.609375 -2.3125 L 3.09375 -1.078125 C 2.90625 -0.648438 2.707031 -0.335938 2.5 -0.140625 C 2.289062 0.046875 1.976562 0.140625 1.5625 0.140625 Z M 6.140625 -8.28125 L 4.578125 -4.578125 L 7.71875 -4.578125 L 6.171875 -8.28125 Z M 6.140625 -8.28125 "/></g></g></g><g fill="#5271ff" fill-opacity="1"><g transform="translate(204.950743, 277.228425)"><g><path d="M 2.421875 0.140625 C 1.492188 0.140625 1.03125 -0.328125 1.03125 -1.265625 L 1.03125 -10.0625 C 1.03125 -10.53125 1.148438 -10.890625 1.390625 -11.140625 C 1.628906 -11.398438 1.941406 -11.53125 2.328125 -11.53125 C 2.671875 -11.53125 2.9375 -11.460938 3.125 -11.328125 C 3.3125 -11.203125 3.53125 -10.988281 3.78125 -10.6875 L 8.4375 -4.859375 L 8.4375 -10.140625 C 8.4375 -11.066406 8.894531 -11.53125 9.8125 -11.53125 C 10.257812 -11.53125 10.597656 -11.40625 10.828125 -11.15625 C 11.066406 -10.914062 11.1875 -10.578125 11.1875 -10.140625 L 11.1875 -1.1875 C 11.1875 -0.78125 11.078125 -0.457031 10.859375 -0.21875 C 10.648438 0.0195312 10.359375 0.140625 9.984375 0.140625 C 9.617188 0.140625 9.332031 0.078125 9.125 -0.046875 C 8.914062 -0.171875 8.691406 -0.382812 8.453125 -0.6875 L 3.796875 -6.515625 L 3.796875 -1.265625 C 3.796875 -0.328125 3.335938 0.140625 2.421875 0.140625 Z M 2.421875 0.140625 "/></g></g></g></svg>