<svg xmlns="http://www.w3.org/2000/svg" xmlns:xlink="http://www.w3.org/1999/xlink" width="500" zoomAndPan="magnify" viewBox="0 0 375 374.999991" height="500" preserveAspectRatio="xMidYMid meet" version="1.0"><defs><clipPath id="5a9ac3867d"><path d="M 216 174 L 257.214844 174 L 257.214844 192 L 216 192 Z M 216 174 " clip-rule="nonzero"/></clipPath><clipPath id="3a23c6f619"><path d="M 98.964844 117.113281 L 231 117.113281 L 231 211 L 98.964844 211 Z M 98.964844 117.113281 " clip-rule="nonzero"/></clipPath><clipPath id="9f0d790c8a"><path d="M 188 183 L 243 183 L 243 258.113281 L 188 258.113281 Z M 188 183 " clip-rule="nonzero"/></clipPath></defs><path fill="#5271ff" d="M 179.734375 209.921875 C 177.847656 200.878906 175.457031 192.652344 172.570312 185.238281 C 169.519531 177.414062 165.910156 170.476562 161.738281 164.417969 C 158.28125 159.394531 154.421875 154.972656 150.171875 151.152344 C 148.28125 149.453125 146.3125 147.875 144.269531 146.414062 C 144.652344 147.09375 145.035156 147.789062 145.40625 148.503906 C 147.40625 152.332031 149.210938 156.652344 150.820312 161.46875 C 152.898438 167.691406 154.699219 175.570312 156.1875 184.316406 C 157.714844 193.308594 158.917969 203.21875 159.753906 213.191406 C 162.898438 214.0625 165.914062 214.085938 169.058594 213.496094 C 172.34375 212.882812 175.820312 211.597656 179.734375 209.921875 Z M 176.328125 183.785156 C 179.488281 191.890625 182.050781 200.867188 184.023438 210.722656 C 184.207031 211.632812 183.738281 212.578125 182.855469 212.964844 C 178.085938 215.066406 173.894531 216.695312 169.804688 217.460938 C 165.632812 218.238281 161.632812 218.109375 157.363281 216.664062 C 156.542969 216.460938 155.90625 215.75 155.835938 214.863281 C 155.003906 204.519531 153.777344 194.230469 152.203125 184.976562 C 150.75 176.417969 149 168.75 146.996094 162.746094 C 145.449219 158.117188 143.730469 153.992188 141.835938 150.367188 C 139.964844 146.785156 137.914062 143.679688 135.6875 141.054688 C 135.175781 140.449219 135.046875 139.574219 135.433594 138.828125 C 135.941406 137.839844 137.160156 137.449219 138.152344 137.960938 C 143.480469 140.722656 148.386719 144.121094 152.875 148.152344 C 157.347656 152.171875 161.410156 156.832031 165.058594 162.128906 C 169.40625 168.445312 173.164062 175.664062 176.328125 183.785156 Z M 176.328125 183.785156 " fill-opacity="1" fill-rule="nonzero"/><path fill="#5271ff" d="M 143.769531 182.535156 C 142.605469 177.640625 141.25 172.8125 139.699219 168.050781 C 138.511719 164.398438 137.207031 160.773438 135.785156 157.171875 C 135.816406 162.675781 135.746094 167.941406 135.566406 172.960938 C 135.351562 179.09375 134.980469 184.882812 134.453125 190.324219 C 133.917969 195.808594 133.238281 200.894531 132.40625 205.582031 C 131.585938 210.222656 130.617188 214.523438 129.496094 218.496094 C 130.507812 219.007812 132.554688 219.160156 134.980469 219.035156 C 137.691406 218.898438 140.746094 218.386719 143.367188 217.609375 C 146.382812 216.71875 148.734375 215.710938 148.621094 214.984375 C 148.613281 214.9375 148.605469 214.890625 148.601562 214.84375 L 148.597656 214.84375 C 148.144531 209.371094 147.566406 203.933594 146.789062 198.566406 C 146.011719 193.207031 145.03125 187.859375 143.769531 182.535156 Z M 143.539062 166.804688 C 145.140625 171.714844 146.527344 176.648438 147.703125 181.605469 C 148.988281 187.007812 149.988281 192.480469 150.785156 197.996094 C 151.582031 203.507812 152.171875 209.011719 152.625 214.511719 L 152.621094 214.511719 C 152.992188 217.640625 149.335938 220.050781 144.507812 221.480469 C 141.59375 222.339844 138.199219 222.910156 135.183594 223.0625 C 131.964844 223.230469 129.0625 222.90625 127.390625 221.949219 C 125.726562 221 124.976562 219.601562 125.527344 217.683594 C 126.640625 213.769531 127.609375 209.503906 128.425781 204.886719 C 129.253906 200.207031 129.925781 195.226562 130.4375 189.945312 C 130.957031 184.585938 131.324219 178.875 131.539062 172.820312 C 131.75 166.785156 131.8125 160.425781 131.71875 153.734375 L 131.71875 153.710938 C 131.710938 153.59375 131.710938 153.480469 131.722656 153.371094 C 131.757812 152.78125 131.949219 152.210938 132.269531 151.722656 C 132.59375 151.230469 133.042969 150.820312 133.59375 150.554688 C 133.710938 150.488281 133.835938 150.4375 133.964844 150.398438 C 134.761719 150.121094 135.601562 150.164062 136.335938 150.46875 C 137.074219 150.773438 137.699219 151.332031 138.070312 152.089844 C 138.121094 152.1875 138.167969 152.289062 138.203125 152.394531 C 140.183594 157.148438 141.960938 161.953125 143.539062 166.804688 Z M 143.539062 166.804688 " fill-opacity="1" fill-rule="nonzero"/><path fill="#5271ff" d="M 113.921875 243.035156 C 117.898438 241.476562 120.4375 240.078125 121.554688 238.097656 C 122.664062 236.125 122.546875 233.238281 121.253906 228.617188 C 120.957031 227.546875 121.585938 226.4375 122.660156 226.140625 C 122.921875 226.066406 123.183594 226.050781 123.433594 226.082031 L 123.433594 226.078125 C 139.492188 228.019531 154.640625 226.683594 168.800781 222.890625 C 184.527344 218.675781 199.054688 211.421875 212.28125 202.246094 C 213.195312 201.609375 214.457031 201.835938 215.09375 202.75 C 215.410156 203.203125 215.511719 203.742188 215.425781 204.25 C 214.546875 213.738281 211.945312 221.96875 207.613281 228.933594 C 203.246094 235.960938 197.132812 241.691406 189.277344 246.117188 C 189.023438 246.261719 188.75 246.34375 188.476562 246.367188 L 188.480469 246.371094 C 176.890625 247.46875 164.917969 248.066406 152.570312 248.160156 C 140.203125 248.253906 127.507812 247.851562 114.480469 246.945312 C 113.367188 246.871094 112.523438 245.910156 112.597656 244.796875 C 112.65625 243.976562 113.195312 243.300781 113.921875 243.035156 Z M 125.078125 240.074219 C 124.355469 241.351562 123.359375 242.421875 122.074219 243.378906 C 132.5 243.957031 142.660156 244.210938 152.554688 244.132812 C 164.609375 244.039062 176.316406 243.460938 187.675781 242.398438 C 194.738281 238.347656 200.238281 233.148438 204.183594 226.800781 C 207.542969 221.398438 209.78125 215.148438 210.894531 208.050781 C 198.308594 216.304688 184.597656 222.835938 169.84375 226.792969 C 156.050781 230.488281 141.363281 231.925781 125.839844 230.402344 C 126.699219 234.589844 126.464844 237.605469 125.078125 240.074219 Z M 125.078125 240.074219 " fill-opacity="1" fill-rule="nonzero"/><path fill="#5271ff" d="M 224.570312 171.984375 C 224.871094 173.058594 224.246094 174.171875 223.171875 174.472656 C 222.097656 174.773438 220.984375 174.148438 220.683594 173.074219 C 219.925781 170.398438 219.058594 168.566406 218.082031 167.578125 C 217.757812 167.25 217.4375 167.039062 217.113281 166.949219 C 216.816406 166.863281 216.480469 166.875 216.105469 166.980469 C 215.214844 167.234375 214.164062 167.953125 212.960938 169.140625 C 212.148438 169.914062 210.941406 169.914062 210.132812 169.140625 C 208.925781 167.953125 207.878906 167.234375 206.984375 166.980469 C 206.609375 166.875 206.273438 166.863281 205.980469 166.949219 C 205.65625 167.039062 205.332031 167.25 205.007812 167.578125 C 204.03125 168.566406 203.164062 170.398438 202.40625 173.074219 C 202.105469 174.148438 200.992188 174.773438 199.917969 174.472656 C 198.84375 174.171875 198.21875 173.058594 198.519531 171.984375 C 199.464844 168.644531 200.671875 166.234375 202.132812 164.75 C 202.964844 163.910156 203.878906 163.347656 204.875 163.0625 C 205.898438 162.773438 206.964844 162.785156 208.074219 163.097656 C 209.195312 163.414062 210.351562 164.050781 211.546875 165.003906 C 212.738281 164.050781 213.894531 163.414062 215.015625 163.097656 C 216.125 162.785156 217.191406 162.773438 218.21875 163.0625 C 219.214844 163.347656 220.128906 163.910156 220.960938 164.75 C 222.421875 166.234375 223.625 168.644531 224.570312 171.984375 Z M 224.570312 171.984375 " fill-opacity="1" fill-rule="nonzero"/><path fill="#5271ff" d="M 243.320312 159.453125 C 243.621094 160.527344 242.996094 161.640625 241.921875 161.941406 C 240.847656 162.242188 239.734375 161.617188 239.433594 160.542969 C 238.660156 157.820312 237.816406 156.257812 236.898438 155.855469 C 236.230469 155.566406 235.191406 156.117188 233.777344 157.511719 C 232.964844 158.285156 231.757812 158.285156 230.949219 157.511719 C 230.011719 156.589844 229.214844 156.035156 228.550781 155.847656 C 228.3125 155.78125 228.109375 155.773438 227.9375 155.820312 C 227.738281 155.878906 227.527344 156.015625 227.3125 156.234375 C 226.5625 156.992188 225.890625 158.429688 225.292969 160.542969 C 224.988281 161.617188 223.875 162.242188 222.800781 161.941406 C 221.730469 161.640625 221.101562 160.527344 221.402344 159.453125 C 222.191406 156.675781 223.203125 154.660156 224.4375 153.40625 C 225.160156 152.675781 225.957031 152.183594 226.832031 151.9375 C 227.734375 151.679688 228.667969 151.6875 229.640625 151.964844 C 230.527344 152.214844 231.433594 152.691406 232.359375 153.398438 C 234.535156 151.738281 236.585938 151.324219 238.511719 152.164062 C 240.597656 153.070312 242.199219 155.5 243.320312 159.453125 Z M 243.320312 159.453125 " fill-opacity="1" fill-rule="nonzero"/><g clip-path="url(#5a9ac3867d)"><path fill="#5271ff" d="M 257.140625 188.847656 C 257.441406 189.921875 256.816406 191.035156 255.742188 191.335938 C 254.667969 191.636719 253.554688 191.011719 253.253906 189.9375 C 251.515625 183.800781 249.421875 180.199219 246.96875 179.128906 C 244.761719 178.171875 241.902344 179.425781 238.382812 182.894531 C 237.574219 183.667969 236.363281 183.667969 235.554688 182.894531 C 232.035156 179.425781 229.171875 178.171875 226.96875 179.128906 C 224.515625 180.199219 222.421875 183.800781 220.683594 189.9375 C 220.382812 191.011719 219.269531 191.636719 218.195312 191.335938 C 217.121094 191.035156 216.496094 189.921875 216.796875 188.847656 C 218.878906 181.484375 221.734375 177.011719 225.359375 175.433594 C 228.847656 173.914062 232.71875 175.007812 236.96875 178.707031 C 241.21875 175.007812 245.089844 173.914062 248.578125 175.433594 C 252.203125 177.011719 255.054688 181.484375 257.140625 188.847656 Z M 257.140625 188.847656 " fill-opacity="1" fill-rule="nonzero"/></g><g clip-path="url(#3a23c6f619)"><path fill="#5271ff" d="M 225.960938 148.882812 C 227.464844 148.457031 229.003906 148.484375 230.503906 148.910156 C 230.566406 148.925781 230.625 148.945312 230.6875 148.964844 C 224.175781 139.261719 215.460938 131.425781 205.453125 125.957031 C 189.304688 117.125 169.78125 114.453125 150.71875 120.03125 C 131.648438 125.609375 116.648438 138.386719 107.8125 154.527344 C 98.976562 170.667969 96.300781 190.175781 101.882812 209.222656 C 102.191406 210.292969 103.3125 210.90625 104.378906 210.597656 C 105.449219 210.289062 106.0625 209.171875 105.753906 208.101562 C 100.484375 190.113281 103.007812 171.695312 111.351562 156.453125 C 119.691406 141.21875 133.847656 129.164062 151.839844 123.898438 C 169.84375 118.632812 188.277344 121.15625 203.527344 129.492188 C 212.183594 134.222656 219.8125 140.828125 225.753906 148.945312 C 225.824219 148.921875 225.894531 148.902344 225.960938 148.882812 Z M 225.960938 148.882812 " fill-opacity="1" fill-rule="evenodd"/></g><g clip-path="url(#9f0d790c8a)"><path fill="#5271ff" d="M 238.804688 186.320312 C 239.3125 198.808594 236.324219 210.980469 230.507812 221.601562 C 222.167969 236.835938 208.011719 248.894531 190.019531 254.15625 C 188.949219 254.46875 188.332031 255.585938 188.644531 256.652344 C 188.953125 257.722656 190.070312 258.335938 191.140625 258.027344 C 210.210938 252.445312 225.210938 239.671875 234.046875 223.527344 C 240.636719 211.492188 243.800781 197.582031 242.667969 183.382812 C 241.746094 184.089844 240.917969 184.855469 240.605469 185.160156 C 240.074219 185.683594 239.457031 186.070312 238.804688 186.320312 Z M 238.804688 186.320312 " fill-opacity="1" fill-rule="evenodd"/></g></svg>