<svg xmlns="http://www.w3.org/2000/svg" xmlns:xlink="http://www.w3.org/1999/xlink" width="500" zoomAndPan="magnify" viewBox="0 0 375 374.999991" height="500" preserveAspectRatio="xMidYMid meet" version="1.0"><defs><clipPath id="11529fcb53"><path d="M 276 157 L 370.296875 157 L 370.296875 197 L 276 197 Z M 276 157 " clip-rule="nonzero"/></clipPath><clipPath id="4ab4727a67"><path d="M 5.046875 24.8125 L 310 24.8125 L 310 241 L 5.046875 241 Z M 5.046875 24.8125 " clip-rule="nonzero"/></clipPath><clipPath id="ffe49cce99"><path d="M 211 177 L 338 177 L 338 350.3125 L 211 350.3125 Z M 211 177 " clip-rule="nonzero"/></clipPath></defs><path fill="#5271ff" d="M 191.460938 239.0625 C 187.105469 218.195312 181.59375 199.203125 174.925781 182.089844 C 167.890625 164.027344 159.558594 148.003906 149.933594 134.027344 C 141.945312 122.429688 133.046875 112.222656 123.234375 103.402344 C 118.871094 99.480469 114.328125 95.835938 109.605469 92.46875 C 110.496094 94.035156 111.375 95.640625 112.234375 97.289062 C 116.851562 106.125 121.015625 116.101562 124.726562 127.214844 C 129.527344 141.585938 133.679688 159.769531 137.113281 179.953125 C 140.644531 200.710938 143.417969 223.59375 145.351562 246.609375 C 152.605469 248.625 159.566406 248.671875 166.828125 247.316406 C 174.40625 245.898438 182.429688 242.9375 191.460938 239.0625 Z M 183.609375 178.734375 C 190.894531 197.4375 196.816406 218.164062 201.367188 240.917969 L 201.363281 240.917969 C 201.785156 243.015625 200.710938 245.195312 198.667969 246.09375 C 187.65625 250.941406 177.984375 254.699219 168.542969 256.464844 C 158.914062 258.265625 149.683594 257.96875 139.832031 254.628906 C 137.9375 254.160156 136.46875 252.519531 136.308594 250.46875 C 134.382812 226.59375 131.554688 202.84375 127.921875 181.484375 C 124.5625 161.726562 120.527344 144.019531 115.902344 130.167969 C 112.332031 119.484375 108.363281 109.957031 103.992188 101.589844 C 99.671875 93.320312 94.941406 86.152344 89.796875 80.09375 C 88.617188 78.699219 88.324219 76.675781 89.214844 74.953125 C 90.390625 72.667969 93.199219 71.769531 95.488281 72.949219 C 107.789062 79.324219 119.117188 87.167969 129.472656 96.476562 C 139.796875 105.757812 149.167969 116.511719 157.589844 128.742188 C 167.628906 143.320312 176.300781 159.984375 183.609375 178.734375 Z M 183.609375 178.734375 " fill-opacity="1" fill-rule="nonzero"/><path fill="#5271ff" d="M 108.457031 175.847656 C 105.773438 164.546875 102.644531 153.402344 99.066406 142.410156 C 96.320312 133.980469 93.308594 125.609375 90.023438 117.296875 C 90.101562 130.007812 89.933594 142.160156 89.527344 153.75 C 89.027344 167.90625 88.167969 181.265625 86.949219 193.828125 C 85.71875 206.488281 84.148438 218.230469 82.230469 229.046875 C 80.335938 239.753906 78.097656 249.691406 75.511719 258.855469 C 77.84375 260.042969 82.574219 260.394531 88.167969 260.105469 C 94.429688 259.785156 101.476562 258.601562 107.53125 256.8125 C 114.488281 254.757812 119.914062 252.433594 119.652344 250.753906 C 119.632812 250.644531 119.621094 250.535156 119.613281 250.425781 L 119.597656 250.425781 C 118.550781 237.792969 117.21875 225.246094 115.425781 212.851562 C 113.636719 200.476562 111.371094 188.136719 108.457031 175.847656 Z M 107.929688 139.53125 C 111.617188 150.867188 114.820312 162.253906 117.535156 173.699219 C 120.496094 186.175781 122.8125 198.800781 124.652344 211.539062 C 126.492188 224.253906 127.84375 236.964844 128.894531 249.660156 L 128.886719 249.664062 C 129.742188 256.878906 121.300781 262.449219 110.15625 265.742188 C 103.433594 267.730469 95.601562 269.042969 88.644531 269.402344 C 81.207031 269.785156 74.515625 269.035156 70.652344 266.828125 C 66.8125 264.632812 65.085938 261.40625 66.347656 256.980469 C 68.925781 247.945312 71.15625 238.097656 73.042969 227.445312 C 74.953125 216.644531 76.5 205.144531 77.683594 192.953125 C 78.886719 180.574219 79.734375 167.398438 80.226562 153.421875 C 80.71875 139.492188 80.855469 124.804688 80.644531 109.363281 L 80.640625 109.308594 C 80.621094 109.042969 80.628906 108.777344 80.65625 108.519531 C 80.730469 107.164062 81.171875 105.847656 81.914062 104.71875 C 82.660156 103.585938 83.695312 102.640625 84.96875 102.019531 C 85.238281 101.871094 85.527344 101.75 85.828125 101.660156 C 87.667969 101.023438 89.605469 101.125 91.296875 101.820312 C 93 102.523438 94.449219 103.820312 95.300781 105.566406 C 95.421875 105.789062 95.523438 106.023438 95.609375 106.265625 C 100.175781 117.246094 104.285156 128.332031 107.929688 139.53125 Z M 107.929688 139.53125 " fill-opacity="1" fill-rule="nonzero"/><path fill="#5271ff" d="M 39.566406 315.503906 C 48.742188 311.902344 54.605469 308.675781 57.179688 304.109375 C 59.746094 299.550781 59.472656 292.886719 56.488281 282.222656 C 55.804688 279.75 57.257812 277.1875 59.734375 276.5 C 60.335938 276.335938 60.941406 276.296875 61.523438 276.363281 L 61.523438 276.355469 C 98.582031 280.839844 133.542969 277.761719 166.226562 269.003906 C 202.523438 259.273438 236.058594 242.53125 266.582031 221.34375 C 268.699219 219.875 271.605469 220.398438 273.074219 222.511719 C 273.804688 223.558594 274.042969 224.804688 273.839844 225.96875 C 271.816406 247.875 265.804688 266.871094 255.8125 282.953125 C 245.730469 299.175781 231.625 312.398438 213.488281 322.617188 C 212.902344 322.949219 212.277344 323.136719 211.648438 323.195312 L 211.648438 323.203125 C 184.898438 325.734375 157.269531 327.113281 128.765625 327.332031 C 100.226562 327.550781 70.921875 326.617188 40.855469 324.527344 C 38.285156 324.359375 36.34375 322.136719 36.515625 319.570312 C 36.640625 317.675781 37.886719 316.117188 39.566406 315.503906 Z M 65.3125 308.664062 C 63.648438 311.617188 61.347656 314.085938 58.378906 316.292969 C 82.449219 317.632812 105.898438 318.214844 128.730469 318.039062 C 156.558594 317.824219 183.578125 316.488281 209.792969 314.035156 C 226.089844 304.683594 238.792969 292.683594 247.898438 278.03125 C 255.652344 265.554688 260.8125 251.125 263.386719 234.746094 C 234.332031 253.796875 202.6875 268.878906 168.636719 278.003906 C 136.804688 286.535156 102.898438 289.855469 67.074219 286.339844 C 69.054688 296.007812 68.519531 302.96875 65.3125 308.664062 Z M 65.3125 308.664062 " fill-opacity="1" fill-rule="nonzero"/><path fill="#5271ff" d="M 294.949219 151.492188 C 295.644531 153.96875 294.199219 156.539062 291.722656 157.234375 C 289.246094 157.925781 286.671875 156.484375 285.980469 154.007812 C 284.230469 147.832031 282.230469 143.601562 279.976562 141.316406 C 279.230469 140.5625 278.480469 140.078125 277.734375 139.863281 C 277.054688 139.671875 276.28125 139.699219 275.414062 139.941406 C 273.355469 140.523438 270.933594 142.1875 268.152344 144.929688 C 266.28125 146.714844 263.492188 146.714844 261.625 144.929688 C 258.84375 142.1875 256.421875 140.523438 254.359375 139.941406 C 253.492188 139.699219 252.71875 139.671875 252.039062 139.863281 C 251.292969 140.078125 250.546875 140.5625 249.800781 141.316406 C 247.542969 143.601562 245.542969 147.832031 243.796875 154.007812 C 243.101562 156.484375 240.527344 157.925781 238.050781 157.234375 C 235.574219 156.539062 234.128906 153.96875 234.824219 151.492188 C 237.007812 143.78125 239.785156 138.214844 243.160156 134.792969 C 245.078125 132.851562 247.1875 131.550781 249.488281 130.898438 C 251.851562 130.226562 254.316406 130.25 256.875 130.976562 C 259.464844 131.707031 262.136719 133.175781 264.886719 135.375 C 267.640625 133.175781 270.308594 131.707031 272.898438 130.976562 C 275.457031 130.25 277.921875 130.226562 280.289062 130.898438 C 282.585938 131.550781 284.695312 132.851562 286.613281 134.792969 C 289.988281 138.214844 292.769531 143.78125 294.949219 151.492188 Z M 294.949219 151.492188 " fill-opacity="1" fill-rule="nonzero"/><path fill="#5271ff" d="M 338.222656 122.566406 C 338.917969 125.039062 337.472656 127.609375 334.996094 128.304688 C 332.519531 129 329.945312 127.554688 329.25 125.078125 C 327.472656 118.789062 325.523438 115.183594 323.402344 114.261719 C 321.863281 113.589844 319.457031 114.863281 316.195312 118.078125 C 314.324219 119.863281 311.539062 119.863281 309.667969 118.078125 C 307.511719 115.953125 305.667969 114.675781 304.132812 114.242188 C 303.585938 114.085938 303.117188 114.066406 302.71875 114.179688 C 302.257812 114.308594 301.777344 114.628906 301.277344 115.132812 C 299.546875 116.882812 297.992188 120.199219 296.613281 125.078125 C 295.917969 127.554688 293.347656 129 290.867188 128.304688 C 288.390625 127.609375 286.945312 125.039062 287.640625 122.566406 C 289.457031 116.148438 291.789062 111.496094 294.640625 108.609375 C 296.308594 106.917969 298.152344 105.785156 300.167969 105.210938 C 302.25 104.621094 304.410156 104.640625 306.652344 105.273438 C 308.695312 105.851562 310.789062 106.957031 312.929688 108.589844 C 317.949219 104.75 322.683594 103.796875 327.125 105.734375 C 331.941406 107.832031 335.640625 113.441406 338.222656 122.566406 Z M 338.222656 122.566406 " fill-opacity="1" fill-rule="nonzero"/><g clip-path="url(#11529fcb53)"><path fill="#5271ff" d="M 370.125 190.417969 C 370.820312 192.894531 369.375 195.464844 366.894531 196.160156 C 364.417969 196.855469 361.847656 195.410156 361.152344 192.933594 C 357.140625 178.765625 352.304688 170.449219 346.644531 167.984375 C 341.554688 165.769531 334.949219 168.667969 326.828125 176.675781 C 324.957031 178.460938 322.171875 178.460938 320.300781 176.675781 C 312.175781 168.667969 305.574219 165.769531 300.484375 167.984375 C 294.824219 170.449219 289.988281 178.765625 285.976562 192.933594 C 285.28125 195.410156 282.710938 196.855469 280.234375 196.160156 C 277.753906 195.464844 276.308594 192.894531 277.003906 190.417969 C 281.816406 173.417969 288.402344 163.097656 296.765625 159.457031 C 304.820312 155.949219 313.75 158.46875 323.5625 167.007812 C 333.378906 158.46875 342.308594 155.949219 350.363281 159.457031 C 358.726562 163.097656 365.3125 173.417969 370.125 190.417969 Z M 370.125 190.417969 " fill-opacity="1" fill-rule="nonzero"/></g><g clip-path="url(#4ab4727a67)"><path fill="#5271ff" d="M 298.160156 98.164062 C 301.625 97.179688 305.183594 97.246094 308.644531 98.222656 C 308.789062 98.265625 308.925781 98.304688 309.066406 98.347656 C 294.042969 75.953125 273.929688 57.867188 250.828125 45.238281 C 213.550781 24.855469 168.496094 18.6875 124.496094 31.5625 C 80.484375 44.441406 45.859375 73.929688 25.460938 111.195312 C 5.070312 148.453125 -1.101562 193.480469 11.78125 237.453125 C 12.496094 239.921875 15.074219 241.339844 17.542969 240.625 C 20.007812 239.910156 21.429688 237.332031 20.714844 234.867188 C 8.550781 193.339844 14.378906 150.820312 33.632812 115.644531 C 52.882812 80.472656 85.554688 52.644531 127.085938 40.492188 C 168.636719 28.335938 211.179688 34.15625 246.378906 53.402344 C 266.355469 64.324219 283.964844 79.570312 297.683594 98.308594 C 297.839844 98.257812 298 98.210938 298.160156 98.164062 Z M 298.160156 98.164062 " fill-opacity="1" fill-rule="evenodd"/></g><g clip-path="url(#ffe49cce99)"><path fill="#5271ff" d="M 327.800781 184.578125 C 328.972656 213.414062 322.078125 241.503906 308.652344 266.027344 C 289.40625 301.195312 256.730469 329.023438 215.199219 341.179688 C 212.730469 341.890625 211.3125 344.472656 212.027344 346.9375 C 212.742188 349.402344 215.320312 350.824219 217.789062 350.109375 C 261.804688 337.230469 296.425781 307.738281 316.824219 270.472656 C 332.03125 242.6875 339.332031 210.578125 336.714844 177.804688 C 334.585938 179.433594 332.679688 181.203125 331.960938 181.90625 C 330.726562 183.113281 329.308594 184.003906 327.800781 184.578125 Z M 327.800781 184.578125 " fill-opacity="1" fill-rule="evenodd"/></g></svg>