<svg xmlns="http://www.w3.org/2000/svg" xmlns:xlink="http://www.w3.org/1999/xlink" width="500" zoomAndPan="magnify" viewBox="0 0 375 374.999991" height="500" preserveAspectRatio="xMidYMid meet" version="1.0"><defs><g/></defs><g fill="#000000" fill-opacity="1"><g transform="translate(44.916601, 191.357929)"><g><path d="M 25.429688 -42.992188 C 21.589844 -44.5 17.058594 -45.128906 13.15625 -43.683594 C 8.6875 -41.984375 7.113281 -38.207031 6.609375 -33.738281 C 5.289062 -22.472656 4.28125 -11.140625 3.148438 0.125 C 2.519531 6.167969 11.960938 6.167969 12.589844 0.125 C 13.09375 -4.65625 13.53125 -9.441406 14.035156 -14.164062 C 22.21875 -12.273438 31.597656 -15.296875 35.375 -23.289062 C 39.527344 -31.976562 33.421875 -39.78125 25.429688 -42.992188 Z M 15.042969 -23.730469 C 15.230469 -25.492188 15.359375 -27.316406 15.546875 -29.078125 C 15.671875 -30.402344 15.484375 -32.605469 16.050781 -33.738281 C 16.617188 -34.933594 15.925781 -34.683594 17.308594 -35.058594 C 20.519531 -36.003906 27.632812 -32.414062 27.316406 -28.765625 C 26.875 -22.972656 19.199219 -22.472656 15.042969 -23.730469 Z M 15.042969 -23.730469 "/></g></g></g><g fill="#000000" fill-opacity="1"><g transform="translate(93.628965, 191.357929)"><g><path d="M 35.753906 -5.980469 C 32.289062 -10.699219 28.324219 -14.917969 23.792969 -18.570312 C 27.191406 -20.960938 30.023438 -24.296875 31.21875 -27.882812 C 33.613281 -35.058594 27.191406 -42.109375 19.890625 -41.792969 C 12.148438 -41.417969 7.050781 -34.242188 5.664062 -27.253906 C 3.839844 -18.191406 3.839844 -8.558594 3.148438 0.628906 C 2.644531 6.671875 12.085938 6.671875 12.589844 0.628906 C 12.964844 -4.34375 13.34375 -9.316406 13.785156 -14.289062 C 19.136719 -10.761719 23.792969 -6.421875 27.632812 -1.195312 C 31.15625 3.652344 39.402344 -1.070312 35.753906 -5.980469 Z M 22.28125 -31.15625 C 22.535156 -30.148438 19.703125 -27.632812 18.945312 -26.941406 C 17.625 -25.742188 16.367188 -24.863281 14.730469 -24.675781 C 14.917969 -25.742188 15.167969 -26.8125 15.609375 -27.820312 C 16.050781 -29.015625 21.402344 -35.4375 22.28125 -31.15625 Z M 22.28125 -31.15625 "/></g></g></g><g fill="#000000" fill-opacity="1"><g transform="translate(142.278389, 191.357929)"><g><path d="M 34.996094 -40.03125 C 29.835938 -48.53125 16.367188 -49.597656 9.628906 -42.738281 C 3.019531 -37.074219 2.078125 -23.917969 3.964844 -16.554688 C 5.289062 -11.519531 8.625 -6.230469 13.785156 -4.59375 C 19.136719 -2.832031 25.050781 -4.785156 29.269531 -8.246094 C 33.550781 -11.832031 36.191406 -17.058594 37.074219 -22.535156 C 37.890625 -27.945312 37.953125 -35.183594 34.996094 -40.03125 Z M 23.539062 -15.546875 C 23.351562 -15.421875 23.226562 -15.296875 23.039062 -15.105469 C 21.023438 -13.40625 17.8125 -12.714844 15.671875 -14.351562 C 14.289062 -15.359375 13.660156 -17.058594 13.21875 -18.695312 C 12.589844 -21.402344 12.460938 -24.234375 12.777344 -27.003906 C 13.09375 -29.519531 13.722656 -32.730469 15.167969 -34.808594 C 16.492188 -36.632812 18.695312 -37.765625 20.960938 -37.828125 C 24.863281 -37.890625 27.378906 -35.25 27.820312 -31.597656 C 28.578125 -26.058594 27.757812 -19.574219 23.539062 -15.546875 Z M 23.539062 -15.546875 "/></g></g></g><g fill="#000000" fill-opacity="1"><g transform="translate(191.871827, 191.357929)"><g><path d="M 46.957031 -22.472656 C 46.894531 -27.945312 46.199219 -34.617188 41.792969 -38.457031 C 36.949219 -42.738281 32.226562 -40.472656 28.578125 -36.128906 C 28.449219 -36.382812 28.261719 -36.632812 28.136719 -36.820312 C 24.738281 -42.046875 17.5625 -41.730469 13.40625 -37.640625 C 8.9375 -33.296875 6.671875 -26.058594 5.351562 -20.140625 C 3.964844 -13.660156 3.523438 -6.988281 3.148438 -0.441406 C 2.769531 5.664062 12.210938 5.601562 12.589844 -0.441406 C 13.03125 -8.371094 13.53125 -16.429688 16.238281 -23.917969 C 16.867188 -25.617188 17.5625 -27.253906 18.503906 -28.765625 C 18.820312 -29.269531 19.636719 -30.96875 20.394531 -31.15625 C 20.394531 -31.21875 20.457031 -31.21875 20.457031 -31.21875 C 20.457031 -31.15625 20.457031 -31.03125 20.582031 -30.90625 C 21.335938 -29.898438 21.085938 -26.941406 21.148438 -25.742188 C 21.210938 -23.476562 21.085938 -21.210938 20.835938 -18.882812 C 20.332031 -13.660156 29.269531 -12.398438 30.148438 -17.6875 C 30.652344 -21.023438 31.722656 -24.171875 33.550781 -27.066406 C 34.179688 -28.011719 35.5625 -29.144531 36.382812 -30.148438 C 36.507812 -29.144531 37.011719 -28.136719 37.136719 -27.191406 C 38.648438 -18.820312 37.011719 -9.566406 36.191406 -1.257812 C 35.5625 4.785156 45.003906 4.785156 45.632812 -1.257812 C 46.328125 -8.246094 47.082031 -15.359375 46.957031 -22.472656 Z M 46.957031 -22.472656 "/></g></g></g><g fill="#000000" fill-opacity="1"><g transform="translate(250.842453, 191.357929)"><g><path d="M 25.429688 -42.992188 C 21.589844 -44.5 17.058594 -45.128906 13.15625 -43.683594 C 8.6875 -41.984375 7.113281 -38.207031 6.609375 -33.738281 C 5.289062 -22.472656 4.28125 -11.140625 3.148438 0.125 C 2.519531 6.167969 11.960938 6.167969 12.589844 0.125 C 13.09375 -4.65625 13.53125 -9.441406 14.035156 -14.164062 C 22.21875 -12.273438 31.597656 -15.296875 35.375 -23.289062 C 39.527344 -31.976562 33.421875 -39.78125 25.429688 -42.992188 Z M 15.042969 -23.730469 C 15.230469 -25.492188 15.359375 -27.316406 15.546875 -29.078125 C 15.671875 -30.402344 15.484375 -32.605469 16.050781 -33.738281 C 16.617188 -34.933594 15.925781 -34.683594 17.308594 -35.058594 C 20.519531 -36.003906 27.632812 -32.414062 27.316406 -28.765625 C 26.875 -22.972656 19.199219 -22.472656 15.042969 -23.730469 Z M 15.042969 -23.730469 "/></g></g></g><g fill="#000000" fill-opacity="1"><g transform="translate(299.554808, 191.357929)"><g><path d="M 28.640625 -43.304688 C 21.652344 -44.1875 14.664062 -44.3125 7.617188 -43.621094 C 1.636719 -42.992188 1.574219 -33.550781 7.617188 -34.179688 C 9.503906 -34.367188 11.328125 -34.492188 13.15625 -34.554688 C 12.589844 -25.367188 12.085938 -16.113281 11.519531 -6.921875 C 11.140625 -0.882812 20.582031 -0.882812 20.960938 -6.921875 C 21.527344 -16.113281 22.03125 -25.242188 22.597656 -34.429688 C 24.609375 -34.304688 26.625 -34.117188 28.640625 -33.863281 C 34.683594 -33.109375 34.617188 -42.550781 28.640625 -43.304688 Z M 28.640625 -43.304688 "/></g></g></g><g fill="#5271ff" fill-opacity="1"><g transform="translate(139.747472, 220.441643)"><g><path d="M 8.046875 0.21875 C 6.617188 0.21875 5.367188 -0.0820312 4.296875 -0.6875 C 3.234375 -1.289062 2.40625 -2.132812 1.8125 -3.21875 C 1.21875 -4.3125 0.921875 -5.582031 0.921875 -7.03125 C 0.921875 -8.488281 1.210938 -9.757812 1.796875 -10.84375 C 2.390625 -11.925781 3.222656 -12.765625 4.296875 -13.359375 C 5.367188 -13.953125 6.617188 -14.25 8.046875 -14.25 C 9.460938 -14.25 10.703125 -13.953125 11.765625 -13.359375 C 12.835938 -12.765625 13.671875 -11.925781 14.265625 -10.84375 C 14.867188 -9.757812 15.171875 -8.488281 15.171875 -7.03125 C 15.171875 -5.582031 14.867188 -4.3125 14.265625 -3.21875 C 13.671875 -2.132812 12.835938 -1.289062 11.765625 -0.6875 C 10.703125 -0.0820312 9.460938 0.21875 8.046875 0.21875 Z M 8.046875 -2.84375 C 9.078125 -2.84375 9.882812 -3.210938 10.46875 -3.953125 C 11.0625 -4.691406 11.359375 -5.71875 11.359375 -7.03125 C 11.359375 -8.34375 11.066406 -9.363281 10.484375 -10.09375 C 9.898438 -10.820312 9.085938 -11.1875 8.046875 -11.1875 C 6.992188 -11.1875 6.175781 -10.820312 5.59375 -10.09375 C 5.007812 -9.363281 4.71875 -8.34375 4.71875 -7.03125 C 4.71875 -5.71875 5.007812 -4.691406 5.59375 -3.953125 C 6.175781 -3.210938 6.992188 -2.84375 8.046875 -2.84375 Z M 8.046875 -2.84375 "/></g></g></g><g fill="#5271ff" fill-opacity="1"><g transform="translate(159.415549, 220.441643)"><g><path d="M 8.359375 0.21875 C 6.804688 0.21875 5.472656 -0.078125 4.359375 -0.671875 C 3.242188 -1.273438 2.390625 -2.117188 1.796875 -3.203125 C 1.210938 -4.296875 0.921875 -5.570312 0.921875 -7.03125 C 0.921875 -8.488281 1.210938 -9.757812 1.796875 -10.84375 C 2.390625 -11.925781 3.242188 -12.765625 4.359375 -13.359375 C 5.472656 -13.953125 6.804688 -14.25 8.359375 -14.25 C 8.972656 -14.25 9.609375 -14.175781 10.265625 -14.03125 C 10.921875 -13.894531 11.5 -13.691406 12 -13.421875 C 12.375 -13.222656 12.632812 -12.96875 12.78125 -12.65625 C 12.925781 -12.351562 12.976562 -12.039062 12.9375 -11.71875 C 12.894531 -11.40625 12.773438 -11.117188 12.578125 -10.859375 C 12.390625 -10.609375 12.148438 -10.441406 11.859375 -10.359375 C 11.566406 -10.273438 11.25 -10.316406 10.90625 -10.484375 C 10.125 -10.867188 9.320312 -11.0625 8.5 -11.0625 C 7.269531 -11.0625 6.34375 -10.710938 5.71875 -10.015625 C 5.09375 -9.328125 4.78125 -8.332031 4.78125 -7.03125 C 4.78125 -5.71875 5.09375 -4.710938 5.71875 -4.015625 C 6.34375 -3.316406 7.269531 -2.96875 8.5 -2.96875 C 8.84375 -2.96875 9.210938 -3.007812 9.609375 -3.09375 C 10.015625 -3.175781 10.410156 -3.3125 10.796875 -3.5 C 11.191406 -3.675781 11.546875 -3.722656 11.859375 -3.640625 C 12.171875 -3.554688 12.425781 -3.394531 12.625 -3.15625 C 12.820312 -2.925781 12.941406 -2.65625 12.984375 -2.34375 C 13.035156 -2.03125 12.992188 -1.71875 12.859375 -1.40625 C 12.722656 -1.101562 12.476562 -0.859375 12.125 -0.671875 C 11.65625 -0.398438 11.078125 -0.179688 10.390625 -0.015625 C 9.710938 0.140625 9.035156 0.21875 8.359375 0.21875 Z M 8.359375 0.21875 "/></g></g></g><g fill="#5271ff" fill-opacity="1"><g transform="translate(176.714805, 220.441643)"><g><path d="M 3.1875 0 C 1.914062 0 1.28125 -0.628906 1.28125 -1.890625 L 1.28125 -12.140625 C 1.28125 -13.398438 1.914062 -14.03125 3.1875 -14.03125 L 9.9375 -14.03125 C 10.882812 -14.03125 11.359375 -13.566406 11.359375 -12.640625 C 11.359375 -11.679688 10.882812 -11.203125 9.9375 -11.203125 L 4.78125 -11.203125 L 4.78125 -8.546875 L 9.5 -8.546875 C 10.445312 -8.546875 10.921875 -8.070312 10.921875 -7.125 C 10.921875 -6.1875 10.445312 -5.71875 9.5 -5.71875 L 4.78125 -5.71875 L 4.78125 -2.828125 L 9.9375 -2.828125 C 10.882812 -2.828125 11.359375 -2.351562 11.359375 -1.40625 C 11.359375 -0.46875 10.882812 0 9.9375 0 Z M 3.1875 0 "/></g></g></g><g fill="#5271ff" fill-opacity="1"><g transform="translate(192.540992, 220.441643)"><g><path d="M 1.9375 0.171875 C 1.3125 0.171875 0.851562 -0.0351562 0.5625 -0.453125 C 0.269531 -0.878906 0.269531 -1.410156 0.5625 -2.046875 L 5.515625 -12.71875 C 5.753906 -13.238281 6.046875 -13.617188 6.390625 -13.859375 C 6.734375 -14.097656 7.140625 -14.21875 7.609375 -14.21875 C 8.054688 -14.21875 8.453125 -14.097656 8.796875 -13.859375 C 9.140625 -13.617188 9.429688 -13.238281 9.671875 -12.71875 L 14.625 -2.046875 C 14.9375 -1.398438 14.953125 -0.867188 14.671875 -0.453125 C 14.390625 -0.0351562 13.953125 0.171875 13.359375 0.171875 C 12.828125 0.171875 12.414062 0.0546875 12.125 -0.171875 C 11.84375 -0.410156 11.585938 -0.796875 11.359375 -1.328125 L 10.734375 -2.84375 L 4.453125 -2.84375 L 3.828125 -1.328125 C 3.585938 -0.796875 3.335938 -0.410156 3.078125 -0.171875 C 2.828125 0.0546875 2.445312 0.171875 1.9375 0.171875 Z M 7.5625 -10.21875 L 5.65625 -5.65625 L 9.515625 -5.65625 L 7.609375 -10.21875 Z M 7.5625 -10.21875 "/></g></g></g><g fill="#5271ff" fill-opacity="1"><g transform="translate(211.333207, 220.441643)"><g><path d="M 2.984375 0.171875 C 1.847656 0.171875 1.28125 -0.398438 1.28125 -1.546875 L 1.28125 -12.40625 C 1.28125 -12.988281 1.425781 -13.4375 1.71875 -13.75 C 2.007812 -14.0625 2.390625 -14.21875 2.859375 -14.21875 C 3.285156 -14.21875 3.613281 -14.132812 3.84375 -13.96875 C 4.082031 -13.8125 4.351562 -13.546875 4.65625 -13.171875 L 10.40625 -5.984375 L 10.40625 -12.5 C 10.40625 -13.644531 10.972656 -14.21875 12.109375 -14.21875 C 12.660156 -14.21875 13.078125 -14.066406 13.359375 -13.765625 C 13.648438 -13.460938 13.796875 -13.039062 13.796875 -12.5 L 13.796875 -1.46875 C 13.796875 -0.96875 13.660156 -0.566406 13.390625 -0.265625 C 13.128906 0.0234375 12.773438 0.171875 12.328125 0.171875 C 11.867188 0.171875 11.507812 0.09375 11.25 -0.0625 C 11 -0.21875 10.726562 -0.484375 10.4375 -0.859375 L 4.671875 -8.046875 L 4.671875 -1.546875 C 4.671875 -0.398438 4.109375 0.171875 2.984375 0.171875 Z M 2.984375 0.171875 "/></g></g></g></svg>