<svg xmlns="http://www.w3.org/2000/svg" xmlns:xlink="http://www.w3.org/1999/xlink" width="500" zoomAndPan="magnify" viewBox="0 0 375 149.999998" height="200" preserveAspectRatio="xMidYMid meet" version="1.0"><defs><g/><clipPath id="c960b3f415"><path d="M 129 61 L 172.851562 61 L 172.851562 80 L 129 80 Z M 129 61 " clip-rule="nonzero"/></clipPath><clipPath id="92e2201ca5"><path d="M 4.851562 0 L 145 0 L 145 100 L 4.851562 100 Z M 4.851562 0 " clip-rule="nonzero"/></clipPath></defs><path fill="#5271ff" d="M 90.597656 98.734375 C 88.59375 89.117188 86.058594 80.363281 82.988281 72.476562 C 79.753906 64.152344 75.921875 56.769531 71.492188 50.328125 C 67.820312 44.984375 63.726562 40.28125 59.214844 36.214844 C 57.207031 34.40625 55.117188 32.726562 52.945312 31.175781 C 53.355469 31.898438 53.757812 32.640625 54.152344 33.398438 C 56.277344 37.472656 58.191406 42.066406 59.898438 47.191406 C 62.109375 53.8125 64.019531 62.191406 65.597656 71.492188 C 67.222656 81.058594 68.496094 91.601562 69.386719 102.210938 C 72.722656 103.140625 75.925781 103.160156 79.265625 102.535156 C 82.75 101.882812 86.441406 100.515625 90.597656 98.734375 Z M 86.984375 70.933594 C 90.335938 79.550781 93.058594 89.101562 95.152344 99.585938 L 95.148438 99.585938 C 95.34375 100.554688 94.847656 101.558594 93.910156 101.972656 C 88.84375 104.207031 84.398438 105.9375 80.054688 106.75 C 75.625 107.582031 71.378906 107.445312 66.847656 105.90625 C 65.976562 105.6875 65.300781 104.933594 65.226562 103.988281 C 64.34375 92.984375 63.039062 82.042969 61.371094 72.199219 C 59.824219 63.09375 57.96875 54.933594 55.839844 48.550781 C 54.199219 43.625 52.375 39.234375 50.363281 35.378906 C 48.375 31.570312 46.199219 28.265625 43.835938 25.472656 C 43.292969 24.832031 43.15625 23.898438 43.566406 23.105469 C 44.109375 22.050781 45.398438 21.640625 46.449219 22.179688 C 52.109375 25.121094 57.320312 28.734375 62.082031 33.023438 C 66.832031 37.300781 71.140625 42.257812 75.015625 47.894531 C 79.632812 54.609375 83.621094 62.289062 86.984375 70.933594 Z M 86.984375 70.933594 " fill-opacity="1" fill-rule="nonzero"/><path fill="#5271ff" d="M 52.414062 69.601562 C 51.183594 64.394531 49.742188 59.257812 48.097656 54.191406 C 46.835938 50.308594 45.449219 46.449219 43.9375 42.617188 C 43.972656 48.476562 43.898438 54.074219 43.710938 59.417969 C 43.480469 65.941406 43.085938 72.097656 42.523438 77.886719 C 41.957031 83.722656 41.234375 89.132812 40.355469 94.117188 C 39.484375 99.050781 38.453125 103.628906 37.261719 107.855469 C 38.335938 108.398438 40.511719 108.5625 43.085938 108.429688 C 45.964844 108.28125 49.207031 107.734375 51.988281 106.910156 C 55.191406 105.964844 57.6875 104.894531 57.566406 104.121094 C 57.558594 104.070312 57.550781 104.019531 57.546875 103.96875 L 57.539062 103.96875 C 57.058594 98.148438 56.445312 92.363281 55.621094 86.652344 C 54.796875 80.949219 53.757812 75.265625 52.414062 69.601562 Z M 52.171875 52.863281 C 53.871094 58.089844 55.34375 63.335938 56.59375 68.609375 C 57.953125 74.359375 59.019531 80.179688 59.867188 86.046875 C 60.710938 91.910156 61.335938 97.765625 61.816406 103.617188 L 61.8125 103.617188 C 62.207031 106.941406 58.324219 109.507812 53.199219 111.027344 C 50.105469 111.941406 46.503906 112.546875 43.304688 112.714844 C 39.882812 112.890625 36.804688 112.542969 35.027344 111.527344 C 33.261719 110.515625 32.46875 109.027344 33.046875 106.988281 C 34.234375 102.824219 35.257812 98.289062 36.128906 93.378906 C 37.007812 88.402344 37.71875 83.101562 38.261719 77.484375 C 38.816406 71.78125 39.207031 65.707031 39.433594 59.265625 C 39.65625 52.847656 39.722656 46.078125 39.625 38.960938 L 39.621094 38.9375 C 39.613281 38.816406 39.617188 38.695312 39.628906 38.574219 C 39.664062 37.949219 39.867188 37.34375 40.207031 36.820312 C 40.550781 36.300781 41.027344 35.863281 41.613281 35.578125 C 41.738281 35.511719 41.871094 35.453125 42.007812 35.414062 C 42.855469 35.121094 43.746094 35.164062 44.523438 35.488281 C 45.304688 35.8125 45.972656 36.40625 46.367188 37.214844 C 46.421875 37.316406 46.46875 37.425781 46.507812 37.535156 C 48.609375 42.59375 50.496094 47.703125 52.171875 52.863281 Z M 52.171875 52.863281 " fill-opacity="1" fill-rule="nonzero"/><path fill="#5271ff" d="M 20.730469 133.960938 C 24.949219 132.296875 27.648438 130.8125 28.832031 128.707031 C 30.011719 126.605469 29.886719 123.535156 28.515625 118.621094 C 28.199219 117.480469 28.867188 116.300781 30.007812 115.984375 C 30.28125 115.910156 30.5625 115.890625 30.828125 115.921875 L 30.828125 115.917969 C 47.875 117.984375 63.957031 116.566406 78.988281 112.527344 C 95.683594 108.046875 111.109375 100.332031 125.148438 90.566406 C 126.121094 89.890625 127.457031 90.128906 128.132812 91.105469 C 128.46875 91.585938 128.578125 92.160156 128.484375 92.699219 C 127.554688 102.792969 124.789062 111.546875 120.195312 118.957031 C 115.558594 126.433594 109.066406 132.527344 100.726562 137.238281 C 100.457031 137.390625 100.167969 137.476562 99.878906 137.503906 L 99.878906 137.507812 C 87.578125 138.675781 74.867188 139.308594 61.757812 139.410156 C 48.632812 139.511719 35.152344 139.082031 21.320312 138.117188 C 20.140625 138.039062 19.246094 137.015625 19.324219 135.832031 C 19.382812 134.957031 19.957031 134.242188 20.730469 133.960938 Z M 32.570312 130.804688 C 31.804688 132.167969 30.75 133.304688 29.382812 134.320312 C 40.453125 134.9375 51.238281 135.207031 61.742188 135.125 C 74.542969 135.027344 86.96875 134.414062 99.027344 133.28125 C 106.523438 128.972656 112.367188 123.441406 116.554688 116.691406 C 120.121094 110.941406 122.496094 104.292969 123.679688 96.742188 C 110.316406 105.523438 95.757812 112.472656 80.097656 116.679688 C 65.457031 120.609375 49.859375 122.140625 33.382812 120.519531 C 34.292969 124.972656 34.046875 128.183594 32.570312 130.808594 Z M 32.570312 130.804688 " fill-opacity="1" fill-rule="nonzero"/><path fill="#5271ff" d="M 138.195312 58.375 C 138.515625 59.519531 137.851562 60.703125 136.710938 61.023438 C 135.570312 61.34375 134.390625 60.675781 134.070312 59.535156 C 133.265625 56.691406 132.34375 54.742188 131.308594 53.6875 C 130.964844 53.339844 130.621094 53.117188 130.277344 53.019531 C 129.964844 52.929688 129.609375 52.941406 129.210938 53.054688 C 128.261719 53.324219 127.148438 54.089844 125.871094 55.351562 C 125.007812 56.175781 123.726562 56.175781 122.867188 55.351562 C 121.585938 54.089844 120.472656 53.324219 119.527344 53.054688 C 119.128906 52.941406 118.773438 52.929688 118.457031 53.019531 C 118.113281 53.117188 117.773438 53.339844 117.429688 53.6875 C 116.390625 54.742188 115.472656 56.691406 114.667969 59.535156 C 114.347656 60.675781 113.164062 61.34375 112.023438 61.023438 C 110.886719 60.703125 110.222656 59.519531 110.539062 58.375 C 111.542969 54.824219 112.824219 52.257812 114.375 50.683594 C 115.257812 49.785156 116.226562 49.1875 117.285156 48.886719 C 118.371094 48.578125 119.507812 48.589844 120.683594 48.921875 C 121.875 49.257812 123.101562 49.9375 124.367188 50.949219 C 125.632812 49.9375 126.863281 49.257812 128.054688 48.921875 C 129.230469 48.589844 130.363281 48.578125 131.453125 48.886719 C 132.507812 49.1875 133.480469 49.785156 134.363281 50.683594 C 135.914062 52.257812 137.191406 54.824219 138.195312 58.375 Z M 138.195312 58.375 " fill-opacity="1" fill-rule="nonzero"/><path fill="#5271ff" d="M 158.097656 45.046875 C 158.417969 46.1875 157.753906 47.371094 156.613281 47.691406 C 155.476562 48.011719 154.292969 47.347656 153.972656 46.207031 C 153.152344 43.308594 152.257812 41.644531 151.285156 41.21875 C 150.574219 40.910156 149.46875 41.496094 147.96875 42.980469 C 147.109375 43.800781 145.824219 43.800781 144.964844 42.980469 C 143.972656 42 143.125 41.410156 142.421875 41.210938 C 142.167969 41.140625 141.953125 41.128906 141.769531 41.183594 C 141.554688 41.242188 141.335938 41.390625 141.105469 41.621094 C 140.3125 42.429688 139.597656 43.957031 138.960938 46.207031 C 138.640625 47.347656 137.457031 48.011719 136.320312 47.691406 C 135.179688 47.371094 134.515625 46.1875 134.832031 45.046875 C 135.667969 42.089844 136.742188 39.945312 138.054688 38.613281 C 138.820312 37.835938 139.667969 37.3125 140.59375 37.050781 C 141.550781 36.777344 142.546875 36.785156 143.578125 37.078125 C 144.519531 37.34375 145.480469 37.855469 146.464844 38.605469 C 148.773438 36.835938 150.953125 36.398438 152.996094 37.289062 C 155.210938 38.257812 156.910156 40.84375 158.097656 45.046875 Z M 158.097656 45.046875 " fill-opacity="1" fill-rule="nonzero"/><g clip-path="url(#c960b3f415)"><path fill="#5271ff" d="M 172.773438 76.316406 C 173.09375 77.457031 172.425781 78.640625 171.289062 78.960938 C 170.148438 79.28125 168.964844 78.617188 168.644531 77.476562 C 166.800781 70.945312 164.578125 67.113281 161.972656 65.976562 C 159.632812 64.957031 156.59375 66.292969 152.859375 69.980469 C 152 70.804688 150.714844 70.804688 149.855469 69.980469 C 146.121094 66.292969 143.082031 64.957031 140.742188 65.976562 C 138.136719 67.113281 135.914062 70.945312 134.070312 77.476562 C 133.75 78.617188 132.566406 79.28125 131.425781 78.960938 C 130.285156 78.640625 129.621094 77.457031 129.941406 76.316406 C 132.15625 68.480469 135.183594 63.726562 139.03125 62.046875 C 142.734375 60.429688 146.84375 61.59375 151.355469 65.527344 C 155.871094 61.589844 159.980469 60.429688 163.683594 62.046875 C 167.53125 63.726562 170.558594 68.480469 172.773438 76.316406 Z M 172.773438 76.316406 " fill-opacity="1" fill-rule="nonzero"/></g><g clip-path="url(#92e2201ca5)"><path fill="#5271ff" d="M 139.671875 33.800781 C 141.265625 33.347656 142.902344 33.378906 144.496094 33.828125 C 144.558594 33.847656 144.625 33.867188 144.6875 33.886719 C 137.777344 23.566406 128.527344 15.230469 117.902344 9.410156 C 100.753906 0.0195312 80.03125 -2.824219 59.792969 3.109375 C 39.550781 9.046875 23.625 22.632812 14.242188 39.808594 C 4.863281 56.976562 2.023438 77.726562 7.949219 97.992188 C 8.277344 99.128906 9.464844 99.78125 10.597656 99.453125 C 11.734375 99.125 12.386719 97.933594 12.058594 96.796875 C 6.464844 77.664062 9.144531 58.066406 18 41.855469 C 26.855469 25.648438 41.882812 12.824219 60.984375 7.226562 C 80.097656 1.621094 99.664062 4.304688 115.855469 13.175781 C 125.042969 18.207031 133.144531 25.234375 139.453125 33.867188 C 139.527344 33.84375 139.597656 33.824219 139.671875 33.800781 Z M 139.671875 33.800781 " fill-opacity="1" fill-rule="evenodd"/></g><path fill="#5271ff" d="M 153.304688 73.625 C 153.84375 86.914062 150.671875 99.859375 144.5 111.160156 C 135.644531 127.363281 120.617188 140.191406 101.515625 145.789062 C 100.378906 146.121094 99.726562 147.308594 100.054688 148.445312 C 100.382812 149.582031 101.570312 150.234375 102.703125 149.90625 C 122.949219 143.96875 138.875 130.378906 148.257812 113.207031 C 155.253906 100.402344 158.609375 85.605469 157.40625 70.503906 C 156.425781 71.253906 155.550781 72.070312 155.21875 72.394531 C 154.652344 72.949219 154 73.359375 153.304688 73.625 Z M 153.304688 73.625 " fill-opacity="1" fill-rule="evenodd"/><g fill="#000000" fill-opacity="1"><g transform="translate(206.560657, 66.152003)"><g><path d="M 12.097656 -20.453125 C 10.269531 -21.171875 8.113281 -21.46875 6.257812 -20.78125 C 4.132812 -19.972656 3.382812 -18.175781 3.144531 -16.050781 C 2.515625 -10.691406 2.035156 -5.300781 1.496094 0.0585938 C 1.199219 2.933594 5.6875 2.933594 5.988281 0.0585938 C 6.226562 -2.214844 6.4375 -4.492188 6.675781 -6.738281 C 10.570312 -5.839844 15.03125 -7.277344 16.828125 -11.078125 C 18.804688 -15.210938 15.898438 -18.925781 12.097656 -20.453125 Z M 7.15625 -11.289062 C 7.246094 -12.128906 7.304688 -12.996094 7.394531 -13.832031 C 7.457031 -14.460938 7.367188 -15.511719 7.636719 -16.050781 C 7.90625 -16.617188 7.574219 -16.5 8.234375 -16.679688 C 9.761719 -17.128906 13.144531 -15.421875 12.996094 -13.683594 C 12.785156 -10.929688 9.132812 -10.691406 7.15625 -11.289062 Z M 7.15625 -11.289062 "/></g></g></g><g fill="#000000" fill-opacity="1"><g transform="translate(229.733973, 66.152003)"><g><path d="M 17.007812 -2.84375 C 15.359375 -5.089844 13.472656 -7.097656 11.320312 -8.832031 C 12.933594 -9.972656 14.28125 -11.558594 14.851562 -13.265625 C 15.988281 -16.679688 12.933594 -20.03125 9.460938 -19.882812 C 5.777344 -19.703125 3.355469 -16.289062 2.695312 -12.964844 C 1.828125 -8.652344 1.828125 -4.074219 1.496094 0.300781 C 1.257812 3.175781 5.75 3.175781 5.988281 0.300781 C 6.167969 -2.066406 6.347656 -4.429688 6.558594 -6.796875 C 9.101562 -5.121094 11.320312 -3.054688 13.144531 -0.570312 C 14.820312 1.738281 18.746094 -0.507812 17.007812 -2.84375 Z M 10.601562 -14.820312 C 10.71875 -14.34375 9.371094 -13.144531 9.011719 -12.816406 C 8.382812 -12.246094 7.785156 -11.828125 7.007812 -11.738281 C 7.097656 -12.246094 7.214844 -12.757812 7.425781 -13.234375 C 7.636719 -13.804688 10.179688 -16.859375 10.601562 -14.820312 Z M 10.601562 -14.820312 "/></g></g></g><g fill="#000000" fill-opacity="1"><g transform="translate(252.877348, 66.152003)"><g><path d="M 16.648438 -19.042969 C 14.191406 -23.085938 7.785156 -23.59375 4.582031 -20.332031 C 1.4375 -17.636719 0.988281 -11.378906 1.886719 -7.875 C 2.515625 -5.480469 4.101562 -2.964844 6.558594 -2.1875 C 9.101562 -1.347656 11.917969 -2.277344 13.921875 -3.921875 C 15.960938 -5.628906 17.21875 -8.113281 17.636719 -10.71875 C 18.027344 -13.292969 18.054688 -16.738281 16.648438 -19.042969 Z M 11.199219 -7.394531 C 11.109375 -7.335938 11.050781 -7.277344 10.960938 -7.1875 C 10 -6.378906 8.472656 -6.046875 7.457031 -6.828125 C 6.796875 -7.304688 6.496094 -8.113281 6.289062 -8.894531 C 5.988281 -10.179688 5.929688 -11.527344 6.078125 -12.84375 C 6.226562 -14.042969 6.527344 -15.570312 7.214844 -16.558594 C 7.84375 -17.425781 8.894531 -17.964844 9.972656 -17.996094 C 11.828125 -18.027344 13.023438 -16.769531 13.234375 -15.03125 C 13.59375 -12.398438 13.203125 -9.3125 11.199219 -7.394531 Z M 11.199219 -7.394531 "/></g></g></g><g fill="#000000" fill-opacity="1"><g transform="translate(276.469807, 66.152003)"><g><path d="M 22.335938 -10.691406 C 22.308594 -13.292969 21.976562 -16.46875 19.882812 -18.296875 C 17.578125 -20.332031 15.332031 -19.253906 13.59375 -17.1875 C 13.535156 -17.308594 13.445312 -17.425781 13.382812 -17.515625 C 11.769531 -20.003906 8.355469 -19.851562 6.378906 -17.90625 C 4.253906 -15.839844 3.175781 -12.398438 2.546875 -9.582031 C 1.886719 -6.496094 1.675781 -3.324219 1.496094 -0.210938 C 1.316406 2.695312 5.808594 2.664062 5.988281 -0.210938 C 6.199219 -3.984375 6.4375 -7.816406 7.726562 -11.378906 C 8.023438 -12.1875 8.355469 -12.964844 8.804688 -13.683594 C 8.953125 -13.921875 9.34375 -14.730469 9.703125 -14.820312 C 9.703125 -14.851562 9.730469 -14.851562 9.730469 -14.851562 C 9.730469 -14.820312 9.730469 -14.761719 9.792969 -14.703125 C 10.152344 -14.222656 10.03125 -12.816406 10.0625 -12.246094 C 10.089844 -11.167969 10.03125 -10.089844 9.910156 -8.984375 C 9.671875 -6.496094 13.921875 -5.898438 14.34375 -8.414062 C 14.582031 -10 15.089844 -11.5 15.960938 -12.875 C 16.257812 -13.324219 16.917969 -13.863281 17.308594 -14.34375 C 17.367188 -13.863281 17.605469 -13.382812 17.667969 -12.933594 C 18.386719 -8.953125 17.605469 -4.550781 17.21875 -0.597656 C 16.917969 2.277344 21.410156 2.277344 21.707031 -0.597656 C 22.039062 -3.921875 22.398438 -7.304688 22.335938 -10.691406 Z M 22.335938 -10.691406 "/></g></g></g><g fill="#000000" fill-opacity="1"><g transform="translate(304.523157, 66.152003)"><g><path d="M 12.097656 -20.453125 C 10.269531 -21.171875 8.113281 -21.46875 6.257812 -20.78125 C 4.132812 -19.972656 3.382812 -18.175781 3.144531 -16.050781 C 2.515625 -10.691406 2.035156 -5.300781 1.496094 0.0585938 C 1.199219 2.933594 5.6875 2.933594 5.988281 0.0585938 C 6.226562 -2.214844 6.4375 -4.492188 6.675781 -6.738281 C 10.570312 -5.839844 15.03125 -7.277344 16.828125 -11.078125 C 18.804688 -15.210938 15.898438 -18.925781 12.097656 -20.453125 Z M 7.15625 -11.289062 C 7.246094 -12.128906 7.304688 -12.996094 7.394531 -13.832031 C 7.457031 -14.460938 7.367188 -15.511719 7.636719 -16.050781 C 7.90625 -16.617188 7.574219 -16.5 8.234375 -16.679688 C 9.761719 -17.128906 13.144531 -15.421875 12.996094 -13.683594 C 12.785156 -10.929688 9.132812 -10.691406 7.15625 -11.289062 Z M 7.15625 -11.289062 "/></g></g></g><g fill="#000000" fill-opacity="1"><g transform="translate(327.69647, 66.152003)"><g><path d="M 13.625 -20.601562 C 10.300781 -21.019531 6.976562 -21.082031 3.625 -20.75 C 0.777344 -20.453125 0.75 -15.960938 3.625 -16.257812 C 4.519531 -16.347656 5.390625 -16.410156 6.257812 -16.4375 C 5.988281 -12.066406 5.75 -7.664062 5.480469 -3.292969 C 5.300781 -0.417969 9.792969 -0.417969 9.972656 -3.292969 C 10.242188 -7.664062 10.480469 -12.007812 10.75 -16.378906 C 11.707031 -16.320312 12.667969 -16.230469 13.625 -16.109375 C 16.5 -15.75 16.46875 -20.242188 13.625 -20.601562 Z M 13.625 -20.601562 "/></g></g></g><g fill="#5271ff" fill-opacity="1"><g transform="translate(246.776563, 86.234266)"><g><path d="M 4.921875 0.140625 C 4.046875 0.140625 3.28125 -0.0390625 2.625 -0.40625 C 1.976562 -0.78125 1.472656 -1.300781 1.109375 -1.96875 C 0.742188 -2.632812 0.5625 -3.410156 0.5625 -4.296875 C 0.5625 -5.191406 0.738281 -5.96875 1.09375 -6.625 C 1.457031 -7.289062 1.96875 -7.804688 2.625 -8.171875 C 3.28125 -8.535156 4.046875 -8.71875 4.921875 -8.71875 C 5.785156 -8.71875 6.539062 -8.535156 7.1875 -8.171875 C 7.84375 -7.804688 8.351562 -7.289062 8.71875 -6.625 C 9.09375 -5.96875 9.28125 -5.191406 9.28125 -4.296875 C 9.28125 -3.410156 9.09375 -2.632812 8.71875 -1.96875 C 8.351562 -1.300781 7.84375 -0.78125 7.1875 -0.40625 C 6.539062 -0.0390625 5.785156 0.140625 4.921875 0.140625 Z M 4.921875 -1.734375 C 5.546875 -1.734375 6.039062 -1.957031 6.40625 -2.40625 C 6.769531 -2.863281 6.953125 -3.492188 6.953125 -4.296875 C 6.953125 -5.097656 6.769531 -5.722656 6.40625 -6.171875 C 6.050781 -6.617188 5.554688 -6.84375 4.921875 -6.84375 C 4.273438 -6.84375 3.773438 -6.617188 3.421875 -6.171875 C 3.066406 -5.722656 2.890625 -5.097656 2.890625 -4.296875 C 2.890625 -3.492188 3.066406 -2.863281 3.421875 -2.40625 C 3.773438 -1.957031 4.273438 -1.734375 4.921875 -1.734375 Z M 4.921875 -1.734375 "/></g></g></g><g fill="#5271ff" fill-opacity="1"><g transform="translate(258.800461, 86.234266)"><g><path d="M 5.109375 0.140625 C 4.160156 0.140625 3.34375 -0.0390625 2.65625 -0.40625 C 1.976562 -0.78125 1.457031 -1.296875 1.09375 -1.953125 C 0.738281 -2.617188 0.5625 -3.398438 0.5625 -4.296875 C 0.5625 -5.191406 0.738281 -5.96875 1.09375 -6.625 C 1.457031 -7.289062 1.976562 -7.804688 2.65625 -8.171875 C 3.34375 -8.535156 4.160156 -8.71875 5.109375 -8.71875 C 5.484375 -8.71875 5.867188 -8.671875 6.265625 -8.578125 C 6.671875 -8.492188 7.03125 -8.367188 7.34375 -8.203125 C 7.570312 -8.078125 7.726562 -7.921875 7.8125 -7.734375 C 7.90625 -7.554688 7.9375 -7.367188 7.90625 -7.171875 C 7.882812 -6.972656 7.8125 -6.796875 7.6875 -6.640625 C 7.570312 -6.492188 7.425781 -6.390625 7.25 -6.328125 C 7.070312 -6.273438 6.878906 -6.304688 6.671875 -6.421875 C 6.191406 -6.648438 5.703125 -6.765625 5.203125 -6.765625 C 4.441406 -6.765625 3.867188 -6.550781 3.484375 -6.125 C 3.109375 -5.695312 2.921875 -5.085938 2.921875 -4.296875 C 2.921875 -3.492188 3.109375 -2.878906 3.484375 -2.453125 C 3.867188 -2.023438 4.441406 -1.8125 5.203125 -1.8125 C 5.410156 -1.8125 5.632812 -1.835938 5.875 -1.890625 C 6.125 -1.941406 6.363281 -2.023438 6.59375 -2.140625 C 6.84375 -2.242188 7.0625 -2.269531 7.25 -2.21875 C 7.4375 -2.175781 7.59375 -2.082031 7.71875 -1.9375 C 7.84375 -1.789062 7.914062 -1.617188 7.9375 -1.421875 C 7.96875 -1.234375 7.941406 -1.046875 7.859375 -0.859375 C 7.773438 -0.671875 7.625 -0.519531 7.40625 -0.40625 C 7.125 -0.238281 6.773438 -0.101562 6.359375 0 C 5.941406 0.09375 5.523438 0.140625 5.109375 0.140625 Z M 5.109375 0.140625 "/></g></g></g><g fill="#5271ff" fill-opacity="1"><g transform="translate(269.376201, 86.234266)"><g><path d="M 1.953125 0 C 1.171875 0 0.78125 -0.382812 0.78125 -1.15625 L 0.78125 -7.421875 C 0.78125 -8.191406 1.171875 -8.578125 1.953125 -8.578125 L 6.078125 -8.578125 C 6.660156 -8.578125 6.953125 -8.296875 6.953125 -7.734375 C 6.953125 -7.148438 6.660156 -6.859375 6.078125 -6.859375 L 2.921875 -6.859375 L 2.921875 -5.21875 L 5.8125 -5.21875 C 6.394531 -5.21875 6.6875 -4.929688 6.6875 -4.359375 C 6.6875 -3.785156 6.394531 -3.5 5.8125 -3.5 L 2.921875 -3.5 L 2.921875 -1.734375 L 6.078125 -1.734375 C 6.660156 -1.734375 6.953125 -1.441406 6.953125 -0.859375 C 6.953125 -0.285156 6.660156 0 6.078125 0 Z M 1.953125 0 "/></g></g></g><g fill="#5271ff" fill-opacity="1"><g transform="translate(279.051395, 86.234266)"><g><path d="M 1.1875 0.109375 C 0.800781 0.109375 0.519531 -0.0195312 0.34375 -0.28125 C 0.164062 -0.539062 0.164062 -0.863281 0.34375 -1.25 L 3.375 -7.78125 C 3.519531 -8.09375 3.695312 -8.320312 3.90625 -8.46875 C 4.113281 -8.613281 4.363281 -8.6875 4.65625 -8.6875 C 4.925781 -8.6875 5.164062 -8.613281 5.375 -8.46875 C 5.59375 -8.320312 5.773438 -8.09375 5.921875 -7.78125 L 8.953125 -1.25 C 9.128906 -0.851562 9.132812 -0.523438 8.96875 -0.265625 C 8.800781 -0.015625 8.535156 0.109375 8.171875 0.109375 C 7.847656 0.109375 7.597656 0.0351562 7.421875 -0.109375 C 7.242188 -0.253906 7.085938 -0.488281 6.953125 -0.8125 L 6.5625 -1.734375 L 2.71875 -1.734375 L 2.34375 -0.8125 C 2.195312 -0.488281 2.046875 -0.253906 1.890625 -0.109375 C 1.734375 0.0351562 1.5 0.109375 1.1875 0.109375 Z M 4.625 -6.25 L 3.453125 -3.453125 L 5.8125 -3.453125 L 4.65625 -6.25 Z M 4.625 -6.25 "/></g></g></g><g fill="#5271ff" fill-opacity="1"><g transform="translate(290.539841, 86.234266)"><g><path d="M 1.828125 0.109375 C 1.128906 0.109375 0.78125 -0.242188 0.78125 -0.953125 L 0.78125 -7.578125 C 0.78125 -7.941406 0.867188 -8.21875 1.046875 -8.40625 C 1.222656 -8.59375 1.457031 -8.6875 1.75 -8.6875 C 2.007812 -8.6875 2.207031 -8.640625 2.34375 -8.546875 C 2.488281 -8.453125 2.65625 -8.289062 2.84375 -8.0625 L 6.359375 -3.65625 L 6.359375 -7.640625 C 6.359375 -8.335938 6.707031 -8.6875 7.40625 -8.6875 C 7.738281 -8.6875 7.992188 -8.59375 8.171875 -8.40625 C 8.347656 -8.226562 8.4375 -7.972656 8.4375 -7.640625 L 8.4375 -0.90625 C 8.4375 -0.59375 8.351562 -0.34375 8.1875 -0.15625 C 8.03125 0.0195312 7.8125 0.109375 7.53125 0.109375 C 7.257812 0.109375 7.039062 0.0625 6.875 -0.03125 C 6.71875 -0.132812 6.550781 -0.296875 6.375 -0.515625 L 2.859375 -4.921875 L 2.859375 -0.953125 C 2.859375 -0.242188 2.515625 0.109375 1.828125 0.109375 Z M 1.828125 0.109375 "/></g></g></g></svg>