<svg xmlns="http://www.w3.org/2000/svg" xmlns:xlink="http://www.w3.org/1999/xlink" width="500" zoomAndPan="magnify" viewBox="0 0 375 112.499997" height="150" preserveAspectRatio="xMidYMid meet" version="1.0"><defs><g/><clipPath id="2fa51ce491"><path d="M 123 46 L 155.046875 46 L 155.046875 59 L 123 59 Z M 123 46 " clip-rule="nonzero"/></clipPath><clipPath id="eecc1e0f41"><path d="M 31.84375 1.117188 L 135 1.117188 L 135 74 L 31.84375 74 Z M 31.84375 1.117188 " clip-rule="nonzero"/></clipPath><clipPath id="a198925b56"><path d="M 101 52 L 144 52 L 144 110.878906 L 101 110.878906 Z M 101 52 " clip-rule="nonzero"/></clipPath></defs><path fill="#5271ff" d="M 94.722656 73.367188 C 93.253906 66.328125 91.394531 59.921875 89.148438 54.152344 C 86.773438 48.0625 83.960938 42.660156 80.714844 37.945312 C 78.023438 34.035156 75.019531 30.59375 71.710938 27.617188 C 70.238281 26.296875 68.707031 25.066406 67.113281 23.929688 C 67.414062 24.460938 67.710938 25 68 25.558594 C 69.558594 28.535156 70.960938 31.902344 72.214844 35.648438 C 73.832031 40.496094 75.234375 46.625 76.390625 53.433594 C 77.582031 60.433594 78.519531 68.148438 79.171875 75.910156 C 81.617188 76.589844 83.964844 76.605469 86.414062 76.148438 C 88.972656 75.671875 91.679688 74.671875 94.722656 73.367188 Z M 92.074219 53.023438 C 94.53125 59.328125 96.53125 66.316406 98.066406 73.988281 L 98.0625 73.992188 C 98.207031 74.699219 97.84375 75.433594 97.15625 75.734375 C 93.441406 77.371094 90.179688 78.636719 86.992188 79.234375 C 83.746094 79.839844 80.632812 79.742188 77.308594 78.613281 C 76.667969 78.457031 76.175781 77.902344 76.121094 77.210938 C 75.472656 69.160156 74.515625 61.152344 73.292969 53.949219 C 72.160156 47.285156 70.796875 41.316406 69.238281 36.644531 C 68.03125 33.042969 66.695312 29.828125 65.21875 27.007812 C 63.761719 24.21875 62.167969 21.800781 60.433594 19.757812 C 60.035156 19.289062 59.933594 18.605469 60.234375 18.023438 C 60.632812 17.253906 61.578125 16.953125 62.351562 17.347656 C 66.5 19.5 70.320312 22.144531 73.8125 25.285156 C 77.296875 28.414062 80.457031 32.039062 83.300781 36.164062 C 86.683594 41.078125 89.609375 46.699219 92.074219 53.023438 Z M 92.074219 53.023438 " fill-opacity="1" fill-rule="nonzero"/><path fill="#5271ff" d="M 66.726562 52.046875 C 65.820312 48.238281 64.765625 44.480469 63.558594 40.773438 C 62.632812 37.929688 61.617188 35.105469 60.507812 32.304688 C 60.535156 36.589844 60.476562 40.6875 60.339844 44.597656 C 60.171875 49.371094 59.882812 53.875 59.472656 58.109375 C 59.054688 62.378906 58.527344 66.339844 57.878906 69.988281 C 57.242188 73.597656 56.484375 76.949219 55.613281 80.039062 C 56.398438 80.441406 57.996094 80.558594 59.882812 80.460938 C 61.992188 80.351562 64.371094 79.953125 66.414062 79.351562 C 68.757812 78.65625 70.589844 77.875 70.5 77.308594 C 70.496094 77.269531 70.492188 77.234375 70.488281 77.195312 L 70.484375 77.199219 C 70.128906 72.9375 69.679688 68.707031 69.074219 64.527344 C 68.472656 60.351562 67.707031 56.191406 66.726562 52.046875 Z M 66.546875 39.800781 C 67.792969 43.625 68.871094 47.464844 69.789062 51.324219 C 70.789062 55.53125 71.566406 59.789062 72.1875 64.082031 C 72.808594 68.371094 73.265625 72.65625 73.621094 76.9375 L 73.617188 76.941406 C 73.90625 79.371094 71.058594 81.25 67.296875 82.363281 C 65.03125 83.03125 62.390625 83.476562 60.042969 83.59375 C 57.535156 83.726562 55.277344 83.472656 53.972656 82.726562 C 52.679688 81.988281 52.097656 80.898438 52.523438 79.40625 C 53.390625 76.359375 54.144531 73.039062 54.78125 69.449219 C 55.425781 65.804688 55.945312 61.925781 56.347656 57.816406 C 56.75 53.644531 57.039062 49.199219 57.203125 44.484375 C 57.367188 39.789062 57.414062 34.835938 57.34375 29.628906 L 57.34375 29.609375 C 57.335938 29.519531 57.339844 29.433594 57.347656 29.34375 C 57.375 28.886719 57.523438 28.445312 57.773438 28.0625 C 58.023438 27.679688 58.375 27.363281 58.800781 27.152344 C 58.894531 27.101562 58.992188 27.0625 59.09375 27.03125 C 59.710938 26.816406 60.367188 26.851562 60.9375 27.085938 C 61.511719 27.320312 62 27.757812 62.289062 28.347656 C 62.328125 28.425781 62.363281 28.503906 62.390625 28.585938 C 63.933594 32.285156 65.316406 36.027344 66.546875 39.800781 Z M 66.546875 39.800781 " fill-opacity="1" fill-rule="nonzero"/><path fill="#5271ff" d="M 43.488281 99.140625 C 46.582031 97.925781 48.5625 96.839844 49.429688 95.300781 C 50.296875 93.761719 50.203125 91.515625 49.195312 87.917969 C 48.964844 87.085938 49.457031 86.222656 50.292969 85.988281 C 50.492188 85.933594 50.699219 85.921875 50.894531 85.945312 L 50.894531 85.941406 C 63.394531 87.453125 75.1875 86.414062 86.210938 83.460938 C 98.457031 80.179688 109.769531 74.535156 120.0625 67.390625 C 120.777344 66.894531 121.757812 67.070312 122.253906 67.785156 C 122.5 68.136719 122.578125 68.554688 122.511719 68.949219 C 121.828125 76.335938 119.800781 82.742188 116.429688 88.164062 C 113.03125 93.636719 108.269531 98.09375 102.152344 101.542969 C 101.957031 101.652344 101.746094 101.714844 101.53125 101.734375 L 101.53125 101.738281 C 92.511719 102.59375 83.191406 103.058594 73.574219 103.128906 C 63.949219 103.203125 54.066406 102.890625 43.921875 102.183594 C 43.054688 102.128906 42.402344 101.378906 42.457031 100.515625 C 42.5 99.875 42.921875 99.347656 43.488281 99.140625 Z M 52.171875 96.835938 C 51.613281 97.832031 50.835938 98.664062 49.832031 99.40625 C 57.953125 99.859375 65.863281 100.054688 73.5625 99.996094 C 82.949219 99.925781 92.066406 99.472656 100.90625 98.648438 C 106.40625 95.492188 110.6875 91.445312 113.761719 86.507812 C 116.375 82.296875 118.117188 77.433594 118.984375 71.910156 C 109.183594 78.332031 98.511719 83.417969 87.023438 86.496094 C 76.289062 89.375 64.851562 90.492188 52.765625 89.308594 C 53.433594 92.566406 53.253906 94.914062 52.171875 96.835938 Z M 52.171875 96.835938 " fill-opacity="1" fill-rule="nonzero"/><path fill="#5271ff" d="M 129.632812 43.835938 C 129.867188 44.667969 129.378906 45.535156 128.542969 45.769531 C 127.707031 46.003906 126.839844 45.519531 126.605469 44.683594 C 126.015625 42.601562 125.339844 41.175781 124.582031 40.40625 C 124.328125 40.148438 124.078125 39.984375 123.824219 39.914062 C 123.59375 39.847656 123.335938 39.859375 123.042969 39.941406 C 122.347656 40.136719 121.53125 40.699219 120.59375 41.621094 C 119.960938 42.222656 119.019531 42.222656 118.390625 41.621094 C 117.453125 40.699219 116.636719 40.136719 115.941406 39.941406 C 115.648438 39.859375 115.386719 39.847656 115.15625 39.914062 C 114.90625 39.984375 114.652344 40.148438 114.402344 40.40625 C 113.640625 41.175781 112.964844 42.601562 112.375 44.683594 C 112.140625 45.519531 111.273438 46.003906 110.4375 45.769531 C 109.605469 45.535156 109.117188 44.667969 109.351562 43.835938 C 110.085938 41.234375 111.023438 39.355469 112.164062 38.203125 C 112.808594 37.546875 113.519531 37.109375 114.296875 36.890625 C 115.09375 36.664062 115.925781 36.671875 116.789062 36.917969 C 117.660156 37.164062 118.5625 37.65625 119.492188 38.402344 C 120.417969 37.65625 121.320312 37.164062 122.195312 36.917969 C 123.058594 36.671875 123.886719 36.664062 124.6875 36.890625 C 125.460938 37.109375 126.171875 37.546875 126.820312 38.203125 C 127.957031 39.355469 128.894531 41.234375 129.632812 43.835938 Z M 129.632812 43.835938 " fill-opacity="1" fill-rule="nonzero"/><path fill="#5271ff" d="M 144.226562 34.082031 C 144.460938 34.914062 143.976562 35.78125 143.140625 36.015625 C 142.304688 36.25 141.4375 35.761719 141.203125 34.929688 C 140.601562 32.808594 139.945312 31.589844 139.230469 31.28125 C 138.710938 31.054688 137.898438 31.484375 136.796875 32.566406 C 136.167969 33.171875 135.226562 33.171875 134.597656 32.566406 C 133.867188 31.851562 133.246094 31.417969 132.730469 31.273438 C 132.546875 31.222656 132.386719 31.214844 132.253906 31.253906 C 132.097656 31.296875 131.933594 31.402344 131.765625 31.574219 C 131.183594 32.164062 130.660156 33.28125 130.191406 34.929688 C 129.957031 35.761719 129.089844 36.25 128.253906 36.015625 C 127.417969 35.78125 126.933594 34.914062 127.167969 34.082031 C 127.777344 31.917969 128.566406 30.347656 129.527344 29.375 C 130.089844 28.804688 130.710938 28.421875 131.390625 28.230469 C 132.09375 28.027344 132.824219 28.035156 133.578125 28.25 C 134.269531 28.445312 134.972656 28.816406 135.695312 29.367188 C 137.390625 28.074219 138.984375 27.753906 140.484375 28.40625 C 142.109375 29.113281 143.355469 31.003906 144.226562 34.082031 Z M 144.226562 34.082031 " fill-opacity="1" fill-rule="nonzero"/><g clip-path="url(#2fa51ce491)"><path fill="#5271ff" d="M 154.988281 56.960938 C 155.222656 57.796875 154.734375 58.664062 153.898438 58.898438 C 153.0625 59.132812 152.195312 58.644531 151.960938 57.808594 C 150.609375 53.03125 148.976562 50.226562 147.066406 49.398438 C 145.351562 48.648438 143.125 49.625 140.382812 52.328125 C 139.753906 52.929688 138.8125 52.929688 138.183594 52.328125 C 135.441406 49.625 133.214844 48.648438 131.5 49.398438 C 129.589844 50.226562 127.957031 53.03125 126.605469 57.808594 C 126.371094 58.644531 125.503906 59.132812 124.667969 58.898438 C 123.832031 58.664062 123.34375 57.796875 123.578125 56.960938 C 125.203125 51.230469 127.421875 47.75 130.242188 46.519531 C 132.960938 45.339844 135.972656 46.1875 139.285156 49.066406 C 142.59375 46.1875 145.605469 45.339844 148.324219 46.519531 C 151.144531 47.75 153.367188 51.230469 154.988281 56.960938 Z M 154.988281 56.960938 " fill-opacity="1" fill-rule="nonzero"/></g><g clip-path="url(#eecc1e0f41)"><path fill="#5271ff" d="M 130.714844 25.851562 C 131.882812 25.519531 133.082031 25.542969 134.25 25.871094 C 134.300781 25.886719 134.347656 25.898438 134.394531 25.914062 C 129.324219 18.363281 122.539062 12.261719 114.75 8.003906 C 102.175781 1.132812 86.976562 -0.949219 72.136719 3.394531 C 57.289062 7.734375 45.609375 17.679688 38.730469 30.246094 C 31.851562 42.808594 29.769531 57.996094 34.117188 72.824219 C 34.355469 73.65625 35.226562 74.132812 36.058594 73.890625 C 36.890625 73.652344 37.371094 72.78125 37.128906 71.949219 C 33.027344 57.945312 34.992188 43.609375 41.488281 31.746094 C 47.980469 19.886719 59 10.503906 73.011719 6.40625 C 87.023438 2.304688 101.375 4.269531 113.246094 10.757812 C 119.988281 14.441406 125.925781 19.582031 130.554688 25.898438 C 130.605469 25.882812 130.660156 25.867188 130.714844 25.851562 Z M 130.714844 25.851562 " fill-opacity="1" fill-rule="evenodd"/></g><g clip-path="url(#a198925b56)"><path fill="#5271ff" d="M 140.710938 54.992188 C 141.109375 64.714844 138.78125 74.1875 134.253906 82.457031 C 127.761719 94.316406 116.742188 103.703125 102.730469 107.800781 C 101.898438 108.039062 101.417969 108.910156 101.660156 109.742188 C 101.902344 110.574219 102.773438 111.050781 103.605469 110.8125 C 118.449219 106.46875 130.128906 96.523438 137.011719 83.957031 C 142.140625 74.585938 144.601562 63.757812 143.71875 52.707031 C 143 53.257812 142.359375 53.855469 142.117188 54.089844 C 141.699219 54.5 141.222656 54.800781 140.710938 54.992188 Z M 140.710938 54.992188 " fill-opacity="1" fill-rule="evenodd"/></g><g fill="#000000" fill-opacity="1"><g transform="translate(185.472584, 47.26148)"><g><path d="M 11.949219 -20.199219 C 10.144531 -20.910156 8.015625 -21.207031 6.179688 -20.527344 C 4.082031 -19.726562 3.34375 -17.953125 3.105469 -15.851562 C 2.484375 -10.558594 2.011719 -5.234375 1.480469 0.0585938 C 1.183594 2.898438 5.621094 2.898438 5.914062 0.0585938 C 6.152344 -2.1875 6.359375 -4.4375 6.59375 -6.65625 C 10.441406 -5.765625 14.847656 -7.1875 16.621094 -10.941406 C 18.574219 -15.023438 15.707031 -18.691406 11.949219 -20.199219 Z M 7.070312 -11.148438 C 7.15625 -11.980469 7.214844 -12.835938 7.304688 -13.664062 C 7.363281 -14.285156 7.277344 -15.320312 7.542969 -15.851562 C 7.808594 -16.414062 7.484375 -16.296875 8.132812 -16.472656 C 9.640625 -16.917969 12.984375 -15.230469 12.835938 -13.515625 C 12.628906 -10.796875 9.019531 -10.558594 7.070312 -11.148438 Z M 7.070312 -11.148438 "/></g></g></g><g fill="#000000" fill-opacity="1"><g transform="translate(208.362071, 47.26148)"><g><path d="M 16.800781 -2.808594 C 15.171875 -5.027344 13.308594 -7.007812 11.179688 -8.726562 C 12.777344 -9.847656 14.109375 -11.417969 14.671875 -13.101562 C 15.792969 -16.472656 12.777344 -19.785156 9.347656 -19.640625 C 5.707031 -19.460938 3.3125 -16.089844 2.660156 -12.808594 C 1.804688 -8.546875 1.804688 -4.023438 1.480469 0.296875 C 1.242188 3.136719 5.679688 3.136719 5.914062 0.296875 C 6.09375 -2.039062 6.269531 -4.378906 6.476562 -6.714844 C 8.992188 -5.058594 11.179688 -3.015625 12.984375 -0.5625 C 14.640625 1.714844 18.515625 -0.503906 16.800781 -2.808594 Z M 10.46875 -14.640625 C 10.589844 -14.167969 9.257812 -12.984375 8.902344 -12.660156 C 8.28125 -12.097656 7.691406 -11.683594 6.921875 -11.59375 C 7.007812 -12.097656 7.128906 -12.601562 7.335938 -13.074219 C 7.542969 -13.636719 10.054688 -16.652344 10.46875 -14.640625 Z M 10.46875 -14.640625 "/></g></g></g><g fill="#000000" fill-opacity="1"><g transform="translate(231.221982, 47.26148)"><g><path d="M 16.445312 -18.8125 C 14.019531 -22.804688 7.691406 -23.304688 4.523438 -20.082031 C 1.417969 -17.421875 0.976562 -11.238281 1.863281 -7.777344 C 2.484375 -5.414062 4.050781 -2.929688 6.476562 -2.160156 C 8.992188 -1.332031 11.773438 -2.246094 13.753906 -3.875 C 15.765625 -5.558594 17.007812 -8.015625 17.421875 -10.589844 C 17.804688 -13.132812 17.835938 -16.535156 16.445312 -18.8125 Z M 11.0625 -7.304688 C 10.972656 -7.246094 10.914062 -7.1875 10.824219 -7.097656 C 9.878906 -6.300781 8.371094 -5.972656 7.363281 -6.742188 C 6.714844 -7.214844 6.417969 -8.015625 6.210938 -8.785156 C 5.914062 -10.054688 5.855469 -11.386719 6.003906 -12.6875 C 6.152344 -13.871094 6.449219 -15.378906 7.128906 -16.355469 C 7.75 -17.214844 8.785156 -17.746094 9.847656 -17.777344 C 11.683594 -17.804688 12.867188 -16.5625 13.074219 -14.847656 C 13.429688 -12.246094 13.042969 -9.199219 11.0625 -7.304688 Z M 11.0625 -7.304688 "/></g></g></g><g fill="#000000" fill-opacity="1"><g transform="translate(254.525478, 47.26148)"><g><path d="M 22.0625 -10.558594 C 22.035156 -13.132812 21.710938 -16.265625 19.640625 -18.070312 C 17.363281 -20.082031 15.144531 -19.019531 13.429688 -16.976562 C 13.367188 -17.09375 13.28125 -17.214844 13.222656 -17.300781 C 11.625 -19.757812 8.25 -19.609375 6.300781 -17.6875 C 4.199219 -15.644531 3.136719 -12.246094 2.515625 -9.464844 C 1.863281 -6.417969 1.65625 -3.28125 1.480469 -0.207031 C 1.300781 2.660156 5.738281 2.632812 5.914062 -0.207031 C 6.121094 -3.933594 6.359375 -7.71875 7.628906 -11.238281 C 7.925781 -12.039062 8.25 -12.808594 8.695312 -13.515625 C 8.84375 -13.753906 9.226562 -14.550781 9.582031 -14.640625 C 9.582031 -14.671875 9.613281 -14.671875 9.613281 -14.671875 C 9.613281 -14.640625 9.613281 -14.582031 9.671875 -14.523438 C 10.027344 -14.050781 9.90625 -12.660156 9.9375 -12.097656 C 9.96875 -11.03125 9.90625 -9.96875 9.789062 -8.871094 C 9.554688 -6.417969 13.753906 -5.828125 14.167969 -8.3125 C 14.402344 -9.878906 14.90625 -11.355469 15.765625 -12.71875 C 16.058594 -13.160156 16.710938 -13.695312 17.09375 -14.167969 C 17.15625 -13.695312 17.390625 -13.222656 17.449219 -12.777344 C 18.160156 -8.84375 17.390625 -4.496094 17.007812 -0.589844 C 16.710938 2.246094 21.148438 2.246094 21.441406 -0.589844 C 21.769531 -3.875 22.125 -7.214844 22.0625 -10.558594 Z M 22.0625 -10.558594 "/></g></g></g><g fill="#000000" fill-opacity="1"><g transform="translate(282.235226, 47.26148)"><g><path d="M 11.949219 -20.199219 C 10.144531 -20.910156 8.015625 -21.207031 6.179688 -20.527344 C 4.082031 -19.726562 3.34375 -17.953125 3.105469 -15.851562 C 2.484375 -10.558594 2.011719 -5.234375 1.480469 0.0585938 C 1.183594 2.898438 5.621094 2.898438 5.914062 0.0585938 C 6.152344 -2.1875 6.359375 -4.4375 6.59375 -6.65625 C 10.441406 -5.765625 14.847656 -7.1875 16.621094 -10.941406 C 18.574219 -15.023438 15.707031 -18.691406 11.949219 -20.199219 Z M 7.070312 -11.148438 C 7.15625 -11.980469 7.214844 -12.835938 7.304688 -13.664062 C 7.363281 -14.285156 7.277344 -15.320312 7.542969 -15.851562 C 7.808594 -16.414062 7.484375 -16.296875 8.132812 -16.472656 C 9.640625 -16.917969 12.984375 -15.230469 12.835938 -13.515625 C 12.628906 -10.796875 9.019531 -10.558594 7.070312 -11.148438 Z M 7.070312 -11.148438 "/></g></g></g><g fill="#000000" fill-opacity="1"><g transform="translate(305.124708, 47.26148)"><g><path d="M 13.457031 -20.347656 C 10.175781 -20.761719 6.890625 -20.820312 3.578125 -20.496094 C 0.769531 -20.199219 0.738281 -15.765625 3.578125 -16.058594 C 4.464844 -16.148438 5.324219 -16.207031 6.179688 -16.238281 C 5.914062 -11.917969 5.679688 -7.570312 5.414062 -3.253906 C 5.234375 -0.414062 9.671875 -0.414062 9.847656 -3.253906 C 10.113281 -7.570312 10.351562 -11.859375 10.617188 -16.179688 C 11.566406 -16.121094 12.511719 -16.03125 13.457031 -15.914062 C 16.296875 -15.558594 16.265625 -19.992188 13.457031 -20.347656 Z M 13.457031 -20.347656 "/></g></g></g><g fill="#5271ff" fill-opacity="1"><g transform="translate(225.457698, 70.715008)"><g><path d="M 5.265625 0.140625 C 4.335938 0.140625 3.519531 -0.0546875 2.8125 -0.453125 C 2.113281 -0.847656 1.566406 -1.398438 1.171875 -2.109375 C 0.785156 -2.816406 0.59375 -3.644531 0.59375 -4.59375 C 0.59375 -5.550781 0.785156 -6.382812 1.171875 -7.09375 C 1.566406 -7.800781 2.113281 -8.347656 2.8125 -8.734375 C 3.519531 -9.128906 4.335938 -9.328125 5.265625 -9.328125 C 6.191406 -9.328125 7.003906 -9.128906 7.703125 -8.734375 C 8.398438 -8.347656 8.945312 -7.800781 9.34375 -7.09375 C 9.738281 -6.382812 9.9375 -5.550781 9.9375 -4.59375 C 9.9375 -3.644531 9.738281 -2.816406 9.34375 -2.109375 C 8.945312 -1.398438 8.398438 -0.847656 7.703125 -0.453125 C 7.003906 -0.0546875 6.191406 0.140625 5.265625 0.140625 Z M 5.265625 -1.859375 C 5.941406 -1.859375 6.472656 -2.097656 6.859375 -2.578125 C 7.242188 -3.066406 7.4375 -3.738281 7.4375 -4.59375 C 7.4375 -5.457031 7.242188 -6.128906 6.859375 -6.609375 C 6.484375 -7.085938 5.953125 -7.328125 5.265625 -7.328125 C 4.578125 -7.328125 4.039062 -7.085938 3.65625 -6.609375 C 3.28125 -6.128906 3.09375 -5.457031 3.09375 -4.59375 C 3.09375 -3.738281 3.28125 -3.066406 3.65625 -2.578125 C 4.039062 -2.097656 4.578125 -1.859375 5.265625 -1.859375 Z M 5.265625 -1.859375 "/></g></g></g><g fill="#5271ff" fill-opacity="1"><g transform="translate(238.337016, 70.715008)"><g><path d="M 5.46875 0.140625 C 4.457031 0.140625 3.585938 -0.0507812 2.859375 -0.4375 C 2.128906 -0.832031 1.566406 -1.382812 1.171875 -2.09375 C 0.785156 -2.8125 0.59375 -3.644531 0.59375 -4.59375 C 0.59375 -5.550781 0.785156 -6.382812 1.171875 -7.09375 C 1.566406 -7.800781 2.128906 -8.347656 2.859375 -8.734375 C 3.585938 -9.128906 4.457031 -9.328125 5.46875 -9.328125 C 5.875 -9.328125 6.289062 -9.28125 6.71875 -9.1875 C 7.144531 -9.101562 7.523438 -8.96875 7.859375 -8.78125 C 8.097656 -8.65625 8.265625 -8.488281 8.359375 -8.28125 C 8.460938 -8.082031 8.5 -7.878906 8.46875 -7.671875 C 8.445312 -7.460938 8.367188 -7.273438 8.234375 -7.109375 C 8.109375 -6.953125 7.953125 -6.84375 7.765625 -6.78125 C 7.578125 -6.726562 7.367188 -6.757812 7.140625 -6.875 C 6.628906 -7.125 6.101562 -7.25 5.5625 -7.25 C 4.757812 -7.25 4.148438 -7.019531 3.734375 -6.5625 C 3.328125 -6.101562 3.125 -5.445312 3.125 -4.59375 C 3.125 -3.738281 3.328125 -3.082031 3.734375 -2.625 C 4.148438 -2.164062 4.757812 -1.9375 5.5625 -1.9375 C 5.789062 -1.9375 6.035156 -1.960938 6.296875 -2.015625 C 6.554688 -2.078125 6.8125 -2.171875 7.0625 -2.296875 C 7.320312 -2.410156 7.550781 -2.441406 7.75 -2.390625 C 7.957031 -2.335938 8.125 -2.234375 8.25 -2.078125 C 8.382812 -1.921875 8.46875 -1.738281 8.5 -1.53125 C 8.53125 -1.320312 8.5 -1.117188 8.40625 -0.921875 C 8.320312 -0.722656 8.164062 -0.5625 7.9375 -0.4375 C 7.632812 -0.257812 7.257812 -0.117188 6.8125 -0.015625 C 6.363281 0.0859375 5.914062 0.140625 5.46875 0.140625 Z M 5.46875 0.140625 "/></g></g></g><g fill="#5271ff" fill-opacity="1"><g transform="translate(249.66515, 70.715008)"><g><path d="M 2.078125 0 C 1.242188 0 0.828125 -0.410156 0.828125 -1.234375 L 0.828125 -7.953125 C 0.828125 -8.773438 1.242188 -9.1875 2.078125 -9.1875 L 6.5 -9.1875 C 7.125 -9.1875 7.4375 -8.882812 7.4375 -8.28125 C 7.4375 -7.65625 7.125 -7.34375 6.5 -7.34375 L 3.125 -7.34375 L 3.125 -5.59375 L 6.21875 -5.59375 C 6.84375 -5.59375 7.15625 -5.285156 7.15625 -4.671875 C 7.15625 -4.046875 6.84375 -3.734375 6.21875 -3.734375 L 3.125 -3.734375 L 3.125 -1.84375 L 6.5 -1.84375 C 7.125 -1.84375 7.4375 -1.535156 7.4375 -0.921875 C 7.4375 -0.304688 7.125 0 6.5 0 Z M 2.078125 0 "/></g></g></g><g fill="#5271ff" fill-opacity="1"><g transform="translate(260.028669, 70.715008)"><g><path d="M 1.265625 0.125 C 0.859375 0.125 0.554688 -0.015625 0.359375 -0.296875 C 0.171875 -0.578125 0.171875 -0.925781 0.359375 -1.34375 L 3.609375 -8.328125 C 3.765625 -8.660156 3.953125 -8.90625 4.171875 -9.0625 C 4.398438 -9.21875 4.671875 -9.296875 4.984375 -9.296875 C 5.273438 -9.296875 5.53125 -9.21875 5.75 -9.0625 C 5.976562 -8.90625 6.171875 -8.660156 6.328125 -8.328125 L 9.578125 -1.34375 C 9.773438 -0.914062 9.78125 -0.5625 9.59375 -0.28125 C 9.414062 -0.0078125 9.132812 0.125 8.75 0.125 C 8.394531 0.125 8.125 0.046875 7.9375 -0.109375 C 7.75 -0.273438 7.582031 -0.53125 7.4375 -0.875 L 7.03125 -1.859375 L 2.921875 -1.859375 L 2.5 -0.875 C 2.34375 -0.53125 2.179688 -0.273438 2.015625 -0.109375 C 1.847656 0.046875 1.597656 0.125 1.265625 0.125 Z M 4.953125 -6.6875 L 3.703125 -3.703125 L 6.234375 -3.703125 L 4.984375 -6.6875 Z M 4.953125 -6.6875 "/></g></g></g><g fill="#5271ff" fill-opacity="1"><g transform="translate(272.334442, 70.715008)"><g><path d="M 1.953125 0.125 C 1.203125 0.125 0.828125 -0.253906 0.828125 -1.015625 L 0.828125 -8.125 C 0.828125 -8.5 0.921875 -8.785156 1.109375 -8.984375 C 1.304688 -9.191406 1.5625 -9.296875 1.875 -9.296875 C 2.15625 -9.296875 2.367188 -9.242188 2.515625 -9.140625 C 2.671875 -9.035156 2.847656 -8.863281 3.046875 -8.625 L 6.8125 -3.921875 L 6.8125 -8.1875 C 6.8125 -8.925781 7.179688 -9.296875 7.921875 -9.296875 C 8.285156 -9.296875 8.5625 -9.195312 8.75 -9 C 8.9375 -8.8125 9.03125 -8.539062 9.03125 -8.1875 L 9.03125 -0.96875 C 9.03125 -0.632812 8.941406 -0.367188 8.765625 -0.171875 C 8.597656 0.0234375 8.363281 0.125 8.0625 0.125 C 7.769531 0.125 7.535156 0.0703125 7.359375 -0.03125 C 7.191406 -0.144531 7.015625 -0.320312 6.828125 -0.5625 L 3.0625 -5.265625 L 3.0625 -1.015625 C 3.0625 -0.253906 2.691406 0.125 1.953125 0.125 Z M 1.953125 0.125 "/></g></g></g></svg>