<svg xmlns="http://www.w3.org/2000/svg" xmlns:xlink="http://www.w3.org/1999/xlink" width="500" zoomAndPan="magnify" viewBox="0 0 375 374.999991" height="500" preserveAspectRatio="xMidYMid meet" version="1.0"><defs><g/></defs><g fill="#000000" fill-opacity="1"><g transform="translate(99.836723, 198.749987)"><g><path d="M 15.324219 -25.90625 C 13.007812 -26.816406 10.277344 -27.195312 7.925781 -26.320312 C 5.234375 -25.296875 4.285156 -23.023438 3.980469 -20.328125 C 3.1875 -13.539062 2.578125 -6.714844 1.894531 0.0742188 C 1.515625 3.71875 7.207031 3.71875 7.585938 0.0742188 C 7.890625 -2.804688 8.15625 -5.6875 8.457031 -8.535156 C 13.386719 -7.394531 19.039062 -9.214844 21.316406 -14.03125 C 23.820312 -19.265625 20.140625 -23.96875 15.324219 -25.90625 Z M 9.066406 -14.296875 C 9.179688 -15.359375 9.253906 -16.460938 9.367188 -17.523438 C 9.445312 -18.320312 9.332031 -19.644531 9.671875 -20.328125 C 10.011719 -21.050781 9.59375 -20.898438 10.429688 -21.125 C 12.363281 -21.695312 16.648438 -19.53125 16.460938 -17.332031 C 16.195312 -13.84375 11.566406 -13.539062 9.066406 -14.296875 Z M 9.066406 -14.296875 "/></g></g></g><g fill="#000000" fill-opacity="1"><g transform="translate(129.189002, 198.749987)"><g><path d="M 21.542969 -3.601562 C 19.457031 -6.449219 17.066406 -8.988281 14.335938 -11.1875 C 16.382812 -12.628906 18.089844 -14.640625 18.8125 -16.800781 C 20.253906 -21.125 16.382812 -25.375 11.984375 -25.183594 C 7.320312 -24.957031 4.246094 -20.632812 3.414062 -16.421875 C 2.3125 -10.960938 2.3125 -5.15625 1.894531 0.378906 C 1.59375 4.019531 7.28125 4.019531 7.585938 0.378906 C 7.8125 -2.617188 8.039062 -5.613281 8.304688 -8.609375 C 11.53125 -6.484375 14.335938 -3.867188 16.648438 -0.71875 C 18.773438 2.199219 23.742188 -0.644531 21.542969 -3.601562 Z M 13.425781 -18.773438 C 13.578125 -18.167969 11.871094 -16.648438 11.417969 -16.234375 C 10.621094 -15.511719 9.859375 -14.980469 8.875 -14.867188 C 8.988281 -15.511719 9.140625 -16.15625 9.40625 -16.765625 C 9.671875 -17.484375 12.894531 -21.351562 13.425781 -18.773438 Z M 13.425781 -18.773438 "/></g></g></g><g fill="#000000" fill-opacity="1"><g transform="translate(158.503356, 198.749987)"><g><path d="M 21.085938 -24.121094 C 17.976562 -29.242188 9.859375 -29.886719 5.804688 -25.753906 C 1.820312 -22.339844 1.25 -14.414062 2.390625 -9.976562 C 3.1875 -6.941406 5.195312 -3.753906 8.304688 -2.769531 C 11.53125 -1.707031 15.09375 -2.882812 17.636719 -4.96875 C 20.214844 -7.128906 21.808594 -10.277344 22.339844 -13.578125 C 22.832031 -16.839844 22.871094 -21.203125 21.085938 -24.121094 Z M 14.183594 -9.367188 C 14.070312 -9.292969 13.996094 -9.214844 13.882812 -9.101562 C 12.667969 -8.078125 10.734375 -7.660156 9.445312 -8.648438 C 8.609375 -9.253906 8.230469 -10.277344 7.964844 -11.265625 C 7.585938 -12.894531 7.507812 -14.601562 7.699219 -16.269531 C 7.890625 -17.789062 8.269531 -19.722656 9.140625 -20.972656 C 9.9375 -22.074219 11.265625 -22.757812 12.628906 -22.792969 C 14.980469 -22.832031 16.5 -21.238281 16.765625 -19.039062 C 17.21875 -15.703125 16.726562 -11.796875 14.183594 -9.367188 Z M 14.183594 -9.367188 "/></g></g></g><g fill="#000000" fill-opacity="1"><g transform="translate(188.386539, 198.749987)"><g><path d="M 28.292969 -13.539062 C 28.257812 -16.839844 27.839844 -20.859375 25.183594 -23.171875 C 22.261719 -25.753906 19.417969 -24.386719 17.21875 -21.769531 C 17.144531 -21.921875 17.03125 -22.074219 16.953125 -22.1875 C 14.90625 -25.335938 10.582031 -25.144531 8.078125 -22.679688 C 5.386719 -20.0625 4.019531 -15.703125 3.222656 -12.136719 C 2.390625 -8.230469 2.125 -4.210938 1.894531 -0.265625 C 1.667969 3.414062 7.359375 3.375 7.585938 -0.265625 C 7.851562 -5.042969 8.15625 -9.898438 9.785156 -14.414062 C 10.164062 -15.4375 10.582031 -16.421875 11.152344 -17.332031 C 11.339844 -17.636719 11.832031 -18.660156 12.289062 -18.773438 C 12.289062 -18.8125 12.328125 -18.8125 12.328125 -18.8125 C 12.328125 -18.773438 12.328125 -18.699219 12.402344 -18.621094 C 12.859375 -18.015625 12.707031 -16.234375 12.742188 -15.511719 C 12.78125 -14.148438 12.707031 -12.78125 12.554688 -11.378906 C 12.25 -8.230469 17.636719 -7.472656 18.167969 -10.65625 C 18.46875 -12.667969 19.117188 -14.5625 20.214844 -16.308594 C 20.59375 -16.878906 21.429688 -17.558594 21.921875 -18.167969 C 21.996094 -17.558594 22.300781 -16.953125 22.378906 -16.382812 C 23.289062 -11.339844 22.300781 -5.765625 21.808594 -0.757812 C 21.429688 2.882812 27.117188 2.882812 27.496094 -0.757812 C 27.914062 -4.96875 28.371094 -9.253906 28.292969 -13.539062 Z M 28.292969 -13.539062 "/></g></g></g><g fill="#000000" fill-opacity="1"><g transform="translate(223.92007, 198.749987)"><g><path d="M 15.324219 -25.90625 C 13.007812 -26.816406 10.277344 -27.195312 7.925781 -26.320312 C 5.234375 -25.296875 4.285156 -23.023438 3.980469 -20.328125 C 3.1875 -13.539062 2.578125 -6.714844 1.894531 0.0742188 C 1.515625 3.71875 7.207031 3.71875 7.585938 0.0742188 C 7.890625 -2.804688 8.15625 -5.6875 8.457031 -8.535156 C 13.386719 -7.394531 19.039062 -9.214844 21.316406 -14.03125 C 23.820312 -19.265625 20.140625 -23.96875 15.324219 -25.90625 Z M 9.066406 -14.296875 C 9.179688 -15.359375 9.253906 -16.460938 9.367188 -17.523438 C 9.445312 -18.320312 9.332031 -19.644531 9.671875 -20.328125 C 10.011719 -21.050781 9.59375 -20.898438 10.429688 -21.125 C 12.363281 -21.695312 16.648438 -19.53125 16.460938 -17.332031 C 16.195312 -13.84375 11.566406 -13.539062 9.066406 -14.296875 Z M 9.066406 -14.296875 "/></g></g></g><g fill="#000000" fill-opacity="1"><g transform="translate(253.272344, 198.749987)"><g><path d="M 17.257812 -26.09375 C 13.046875 -26.625 8.835938 -26.699219 4.589844 -26.285156 C 0.984375 -25.90625 0.949219 -20.214844 4.589844 -20.59375 C 5.726562 -20.707031 6.828125 -20.785156 7.925781 -20.820312 C 7.585938 -15.285156 7.28125 -9.710938 6.941406 -4.171875 C 6.714844 -0.53125 12.402344 -0.53125 12.628906 -4.171875 C 12.972656 -9.710938 13.273438 -15.207031 13.617188 -20.746094 C 14.828125 -20.671875 16.042969 -20.558594 17.257812 -20.40625 C 20.898438 -19.949219 20.859375 -25.640625 17.257812 -26.09375 Z M 17.257812 -26.09375 "/></g></g></g><g fill="#5271ff" fill-opacity="1"><g transform="translate(152.37178, 221.414453)"><g><path d="M 6.515625 0.171875 C 5.367188 0.171875 4.359375 -0.0703125 3.484375 -0.5625 C 2.617188 -1.050781 1.945312 -1.734375 1.46875 -2.609375 C 0.988281 -3.492188 0.75 -4.523438 0.75 -5.703125 C 0.75 -6.878906 0.984375 -7.90625 1.453125 -8.78125 C 1.929688 -9.664062 2.609375 -10.347656 3.484375 -10.828125 C 4.359375 -11.316406 5.367188 -11.5625 6.515625 -11.5625 C 7.671875 -11.5625 8.679688 -11.316406 9.546875 -10.828125 C 10.410156 -10.347656 11.082031 -9.664062 11.5625 -8.78125 C 12.050781 -7.90625 12.296875 -6.878906 12.296875 -5.703125 C 12.296875 -4.523438 12.050781 -3.492188 11.5625 -2.609375 C 11.082031 -1.734375 10.410156 -1.050781 9.546875 -0.5625 C 8.679688 -0.0703125 7.671875 0.171875 6.515625 0.171875 Z M 6.515625 -2.3125 C 7.359375 -2.3125 8.019531 -2.609375 8.5 -3.203125 C 8.976562 -3.796875 9.21875 -4.628906 9.21875 -5.703125 C 9.21875 -6.765625 8.976562 -7.59375 8.5 -8.1875 C 8.03125 -8.78125 7.367188 -9.078125 6.515625 -9.078125 C 5.671875 -9.078125 5.007812 -8.78125 4.53125 -8.1875 C 4.0625 -7.59375 3.828125 -6.765625 3.828125 -5.703125 C 3.828125 -4.628906 4.0625 -3.796875 4.53125 -3.203125 C 5.007812 -2.609375 5.671875 -2.3125 6.515625 -2.3125 Z M 6.515625 -2.3125 "/></g></g></g><g fill="#5271ff" fill-opacity="1"><g transform="translate(168.315802, 221.414453)"><g><path d="M 6.78125 0.171875 C 5.519531 0.171875 4.4375 -0.0664062 3.53125 -0.546875 C 2.625 -1.035156 1.929688 -1.71875 1.453125 -2.59375 C 0.984375 -3.476562 0.75 -4.515625 0.75 -5.703125 C 0.75 -6.878906 0.984375 -7.90625 1.453125 -8.78125 C 1.929688 -9.664062 2.625 -10.347656 3.53125 -10.828125 C 4.4375 -11.316406 5.519531 -11.5625 6.78125 -11.5625 C 7.269531 -11.5625 7.78125 -11.503906 8.3125 -11.390625 C 8.851562 -11.273438 9.328125 -11.101562 9.734375 -10.875 C 10.035156 -10.71875 10.242188 -10.515625 10.359375 -10.265625 C 10.484375 -10.015625 10.523438 -9.757812 10.484375 -9.5 C 10.453125 -9.25 10.359375 -9.019531 10.203125 -8.8125 C 10.046875 -8.601562 9.847656 -8.460938 9.609375 -8.390625 C 9.378906 -8.328125 9.125 -8.363281 8.84375 -8.5 C 8.207031 -8.8125 7.554688 -8.96875 6.890625 -8.96875 C 5.890625 -8.96875 5.132812 -8.6875 4.625 -8.125 C 4.125 -7.5625 3.875 -6.753906 3.875 -5.703125 C 3.875 -4.628906 4.125 -3.8125 4.625 -3.25 C 5.132812 -2.6875 5.890625 -2.40625 6.890625 -2.40625 C 7.171875 -2.40625 7.472656 -2.4375 7.796875 -2.5 C 8.117188 -2.570312 8.4375 -2.6875 8.75 -2.84375 C 9.070312 -2.976562 9.359375 -3.015625 9.609375 -2.953125 C 9.859375 -2.890625 10.0625 -2.757812 10.21875 -2.5625 C 10.382812 -2.375 10.488281 -2.148438 10.53125 -1.890625 C 10.570312 -1.640625 10.535156 -1.390625 10.421875 -1.140625 C 10.316406 -0.898438 10.117188 -0.703125 9.828125 -0.546875 C 9.453125 -0.316406 8.988281 -0.140625 8.4375 -0.015625 C 7.882812 0.109375 7.332031 0.171875 6.78125 0.171875 Z M 6.78125 0.171875 "/></g></g></g><g fill="#5271ff" fill-opacity="1"><g transform="translate(182.339528, 221.414453)"><g><path d="M 2.578125 0 C 1.546875 0 1.03125 -0.507812 1.03125 -1.53125 L 1.03125 -9.84375 C 1.03125 -10.863281 1.546875 -11.375 2.578125 -11.375 L 8.046875 -11.375 C 8.828125 -11.375 9.21875 -11 9.21875 -10.25 C 9.21875 -9.476562 8.828125 -9.09375 8.046875 -9.09375 L 3.875 -9.09375 L 3.875 -6.921875 L 7.703125 -6.921875 C 8.472656 -6.921875 8.859375 -6.539062 8.859375 -5.78125 C 8.859375 -5.007812 8.472656 -4.625 7.703125 -4.625 L 3.875 -4.625 L 3.875 -2.296875 L 8.046875 -2.296875 C 8.828125 -2.296875 9.21875 -1.910156 9.21875 -1.140625 C 9.21875 -0.378906 8.828125 0 8.046875 0 Z M 2.578125 0 "/></g></g></g><g fill="#5271ff" fill-opacity="1"><g transform="translate(195.169104, 221.414453)"><g><path d="M 1.5625 0.140625 C 1.0625 0.140625 0.691406 -0.03125 0.453125 -0.375 C 0.210938 -0.71875 0.210938 -1.144531 0.453125 -1.65625 L 4.46875 -10.3125 C 4.664062 -10.726562 4.898438 -11.035156 5.171875 -11.234375 C 5.453125 -11.429688 5.785156 -11.53125 6.171875 -11.53125 C 6.535156 -11.53125 6.851562 -11.429688 7.125 -11.234375 C 7.40625 -11.035156 7.644531 -10.726562 7.84375 -10.3125 L 11.859375 -1.65625 C 12.109375 -1.132812 12.117188 -0.703125 11.890625 -0.359375 C 11.671875 -0.0234375 11.316406 0.140625 10.828125 0.140625 C 10.398438 0.140625 10.066406 0.046875 9.828125 -0.140625 C 9.597656 -0.335938 9.394531 -0.648438 9.21875 -1.078125 L 8.703125 -2.3125 L 3.609375 -2.3125 L 3.09375 -1.078125 C 2.90625 -0.648438 2.707031 -0.335938 2.5 -0.140625 C 2.289062 0.046875 1.976562 0.140625 1.5625 0.140625 Z M 6.140625 -8.28125 L 4.578125 -4.578125 L 7.71875 -4.578125 L 6.171875 -8.28125 Z M 6.140625 -8.28125 "/></g></g></g><g fill="#5271ff" fill-opacity="1"><g transform="translate(210.403103, 221.414453)"><g><path d="M 2.421875 0.140625 C 1.492188 0.140625 1.03125 -0.328125 1.03125 -1.265625 L 1.03125 -10.0625 C 1.03125 -10.53125 1.148438 -10.890625 1.390625 -11.140625 C 1.628906 -11.398438 1.941406 -11.53125 2.328125 -11.53125 C 2.671875 -11.53125 2.9375 -11.460938 3.125 -11.328125 C 3.3125 -11.203125 3.53125 -10.988281 3.78125 -10.6875 L 8.4375 -4.859375 L 8.4375 -10.140625 C 8.4375 -11.066406 8.894531 -11.53125 9.8125 -11.53125 C 10.257812 -11.53125 10.597656 -11.40625 10.828125 -11.15625 C 11.066406 -10.914062 11.1875 -10.578125 11.1875 -10.140625 L 11.1875 -1.1875 C 11.1875 -0.78125 11.078125 -0.457031 10.859375 -0.21875 C 10.648438 0.0195312 10.359375 0.140625 9.984375 0.140625 C 9.617188 0.140625 9.332031 0.078125 9.125 -0.046875 C 8.914062 -0.171875 8.691406 -0.382812 8.453125 -0.6875 L 3.796875 -6.515625 L 3.796875 -1.265625 C 3.796875 -0.328125 3.335938 0.140625 2.421875 0.140625 Z M 2.421875 0.140625 "/></g></g></g></svg>